<?xml version="1.0" encoding="utf-8"?>
<!-- Generator: Adobe Illustrator 16.0.0, SVG Export Plug-In . SVG Version: 6.00 Build 0)  -->
<!DOCTYPE svg PUBLIC "-//W3C//DTD SVG 1.1//EN" "http://www.w3.org/Graphics/SVG/1.1/DTD/svg11.dtd">
<svg version="1.1" id="Layer_1" xmlns="http://www.w3.org/2000/svg" xmlns:xlink="http://www.w3.org/1999/xlink" x="0px" y="0px"
	 width="24px" height="24px" viewBox="0 0 24 24" enable-background="new 0 0 24 24" xml:space="preserve">
<g id="icomoon-ignore">
</g>
<path fill="#FFFFFF" d="M15.2,12c0,1.768-1.433,3.2-3.2,3.2c-1.767,0-3.2-1.433-3.2-3.2c0-1.767,1.433-3.2,3.2-3.2
	C13.768,8.8,15.2,10.233,15.2,12z"/>
<path fill="#FFFFFF" d="M9,2L7.17,4H4C2.895,4,2,4.895,2,6v12c0,1.105,0.895,2,2,2h16c1.105,0,2-0.895,2-2V6c0-1.105-0.895-2-2-2
	h-3.17L15,2H9z M12,17c-2.76,0-5-2.24-5-5s2.24-5,5-5s5,2.24,5,5S14.76,17,12,17z"/>
</svg>
