<?xml version="1.0" encoding="utf-8"?>
<!-- Generator: Adobe Illustrator 16.0.0, SVG Export Plug-In . SVG Version: 6.00 Build 0)  -->
<!DOCTYPE svg PUBLIC "-//W3C//DTD SVG 1.1//EN" "http://www.w3.org/Graphics/SVG/1.1/DTD/svg11.dtd">
<svg version="1.1" id="Layer_1" xmlns="http://www.w3.org/2000/svg" xmlns:xlink="http://www.w3.org/1999/xlink" x="0px" y="0px"
	 width="24px" height="24px" viewBox="0 0 24 24" enable-background="new 0 0 24 24" xml:space="preserve">
<g id="icomoon-ignore">
</g>
<path fill="#FFFFFF" d="M13,4l-1,2.934L11,4c-0.188-0.553,0.106-1.152,0.659-1.341C12.211,2.471,12.812,2.766,13,3.318
	C13.078,3.548,13.072,3.787,13,4z"/>
<path fill="#FFFFFF" d="M4,11l2.934,1L4,13c-0.553,0.188-1.152-0.105-1.341-0.659C2.471,11.789,2.766,11.188,3.318,11
	C3.548,10.922,3.787,10.928,4,11z"/>
<path fill="#FFFFFF" d="M11,20l1-2.934L13,20c0.188,0.553-0.105,1.152-0.659,1.341c-0.552,0.188-1.152-0.106-1.341-0.659
	C10.922,20.452,10.928,20.213,11,20z"/>
<path fill="#FFFFFF" d="M20,12.998l-2.934-1l2.934-1c0.553-0.188,1.152,0.106,1.341,0.659c0.188,0.552-0.106,1.151-0.659,1.341
	C20.452,13.076,20.213,13.07,20,12.998z"/>
<path fill="#FFFFFF" d="M7.05,5.636l1.367,2.781L5.636,7.05c-0.524-0.257-0.74-0.891-0.483-1.414
	c0.258-0.523,0.891-0.739,1.414-0.482C6.785,5.261,6.95,5.434,7.05,5.636z"/>
<path fill="#FFFFFF" d="M5.636,16.949l2.781-1.367L7.05,18.363c-0.257,0.522-0.891,0.738-1.414,0.481
	c-0.523-0.257-0.739-0.891-0.482-1.413C5.261,17.213,5.434,17.049,5.636,16.949z"/>
<path fill="#FFFFFF" d="M16.949,18.363l-1.367-2.781l2.781,1.367c0.523,0.257,0.738,0.891,0.482,1.414
	c-0.258,0.522-0.892,0.738-1.414,0.481C17.213,18.738,17.049,18.564,16.949,18.363z"/>
<path fill="#FFFFFF" d="M18.361,7.048L15.58,8.416l1.368-2.782c0.257-0.523,0.891-0.739,1.413-0.482
	c0.523,0.257,0.74,0.891,0.481,1.415C18.736,6.784,18.564,6.948,18.361,7.048z"/>
<path fill="#FFFFFF" d="M12,16.5c-2.481,0-4.5-2.02-4.5-4.5c0-2.481,2.019-4.5,4.5-4.5c2.48,0,4.5,2.019,4.5,4.5
	C16.5,14.48,14.48,16.5,12,16.5z M12,9.5c-1.379,0-2.5,1.121-2.5,2.5s1.121,2.5,2.5,2.5s2.5-1.121,2.5-2.5S13.379,9.5,12,9.5z"/>
</svg>
