<?xml version="1.0" encoding="utf-8"?>
<!-- Generator: Adobe Illustrator 16.0.0, SVG Export Plug-In . SVG Version: 6.00 Build 0)  -->
<!DOCTYPE svg PUBLIC "-//W3C//DTD SVG 1.1//EN" "http://www.w3.org/Graphics/SVG/1.1/DTD/svg11.dtd">
<svg version="1.1" id="Layer_1" xmlns="http://www.w3.org/2000/svg" xmlns:xlink="http://www.w3.org/1999/xlink" x="0px" y="0px"
	 width="24px" height="24px" viewBox="0 0 24 24" enable-background="new 0 0 24 24" xml:space="preserve">
<g id="icomoon-ignore">
</g>
<path fill="#FFFFFF" d="M8,2h8l2,3h3c0.828,0,1.535,0.298,2.121,0.895S24,7.204,24,8.032v10.983c0,0.828-0.293,1.533-0.879,2.113
	S21.828,22,21,22H3c-0.828,0-1.535-0.293-2.121-0.879S0,19.828,0,19V8.016c0-0.828,0.293-1.538,0.879-2.129S2.172,5,3,5h3L8,2z
	 M12,8c0.678,0,1.324,0.133,1.941,0.398c0.616,0.265,1.147,0.621,1.594,1.066c0.445,0.445,0.801,0.977,1.066,1.594
	c0.264,0.617,0.396,1.264,0.397,1.941s-0.132,1.323-0.397,1.94c-0.267,0.617-0.622,1.149-1.066,1.595
	c-0.445,0.445-0.977,0.8-1.594,1.065c-0.618,0.266-1.266,0.398-1.941,0.398s-1.323-0.133-1.941-0.398
	c-0.618-0.266-1.149-0.62-1.594-1.065c-0.444-0.445-0.8-0.978-1.066-1.595S7,13.676,7.001,12.999s0.133-1.324,0.398-1.941
	c0.265-0.618,0.62-1.149,1.066-1.594c0.446-0.445,0.978-0.801,1.594-1.066S11.323,8,12,8z M12,10c-0.828,0-1.535,0.293-2.121,0.879
	S9,12.172,9,13s0.293,1.535,0.879,2.121S11.172,16,12,16s1.535-0.293,2.121-0.879S15,13.828,15,13s-0.293-1.535-0.879-2.121
	S12.828,10,12,10z M16.93,7l-1.961-3H9.071l-2,3h-4.07C2.725,7,2.489,7.099,2.294,7.297C2.099,7.495,2.001,7.735,2.001,8.016V19
	c0,0.275,0.098,0.512,0.293,0.707S2.725,20,3.001,20h18c0.281,0,0.519-0.095,0.711-0.285c0.192-0.189,0.289-0.423,0.289-0.699V8.032
	c0-0.282-0.099-0.524-0.297-0.727C21.506,7.102,21.271,7,21.001,7h-4.069H16.93z"/>
</svg>
