<?xml version="1.0" encoding="utf-8"?>
<!-- Generator: Adobe Illustrator 16.0.0, SVG Export Plug-In . SVG Version: 6.00 Build 0)  -->
<!DOCTYPE svg PUBLIC "-//W3C//DTD SVG 1.1//EN" "http://www.w3.org/Graphics/SVG/1.1/DTD/svg11.dtd">
<svg version="1.1" id="Layer_1" xmlns="http://www.w3.org/2000/svg" xmlns:xlink="http://www.w3.org/1999/xlink" x="0px" y="0px"
	 width="41.75px" height="96.25px" viewBox="0 0 41.75 96.25" enable-background="new 0 0 41.75 96.25" xml:space="preserve">
<g>
	<g>
		<g>
			<g>
				<g>
					<path fill="#C9C9C9" d="M22.859,92.628c-0.037,0.136,0.382,0.087,0.458,0.107C23.224,92.509,22.75,92.634,22.859,92.628z"/>
					<polygon fill="#C9C9C9" points="21.908,90.393 22.079,90.432 21.66,90.103 					"/>
					<path fill="#C9C9C9" d="M21.916,88.302c-0.714,0.197,0.115,0.758-0.139,1.13l-0.163,0.062l0.574,0.168
						C22.098,89.208,21.717,88.62,21.916,88.302z"/>
					<path fill="#C9C9C9" d="M23.46,87.188c-0.278,0.068-0.239-0.242-0.087,0.26c0.03-0.025,0.048-0.033,0.07-0.047
						C23.439,87.355,23.44,87.293,23.46,87.188z"/>
					<path fill="#C9C9C9" d="M23.443,87.4C23.463,87.62,23.677,87.256,23.443,87.4L23.443,87.4z"/>
					<path fill="#C9C9C9" d="M23.284,86.383l0.248,0.29c0.164-0.061,0.201-0.318,0.32-0.223
						C23.717,86.152,23.554,86.214,23.284,86.383z"/>
					<path fill="#C9C9C9" d="M22.763,86.108l0.105,0.15C22.937,86.232,22.961,86.192,22.763,86.108z"/>
					<path fill="#C9C9C9" d="M23.09,86.577l-0.222-0.318c-0.115,0.041-0.347,0.046,0.08,0.146
						C22.737,86.379,22.94,86.441,23.09,86.577z"/>
					<path fill="#C9C9C9" d="M22.981,86.757c-0.155,0.163-0.253,0.374-0.5,0.083C22.579,87.394,23.081,87.312,22.981,86.757z"/>
					<path fill="#C9C9C9" d="M21.178,88.195l-0.209,0.217l0.239,0.188C21.089,88.507,21.401,88.182,21.178,88.195z"/>
					<path fill="#C9C9C9" d="M23.654,84.576c-0.152-0.018-0.405,0.098-0.599,0.119l0.174,0.215
						C23.333,84.8,23.429,84.591,23.654,84.576z"/>
					<path fill="#C9C9C9" d="M23.055,84.695l-0.261-0.32C22.763,84.661,22.887,84.714,23.055,84.695z"/>
					<polygon fill="#C9C9C9" points="21.971,86.056 22.519,86.583 21.963,85.955 					"/>
					<polygon fill="#C9C9C9" points="23.673,83.353 24.024,83.534 23.493,83.21 					"/>
					<path fill="#C9C9C9" d="M23.611,82.541c0.291,0.134,0.493-0.186,0.672-0.043c-0.052-0.221-0.302-0.409-0.527-0.578
						C23.882,82.1,23.85,82.292,23.611,82.541z"/>
					<path fill="#C9C9C9" d="M23.429,81.635c0.07,0.09,0.195,0.184,0.328,0.285C23.689,81.824,23.592,81.729,23.429,81.635z"/>
					<path fill="#C9C9C9" d="M22.869,83.829c0.092-0.025,0.332-0.073,0.434-0.252l-0.427,0.126
						C22.874,83.741,22.872,83.784,22.869,83.829z"/>
					<path fill="#C9C9C9" d="M22.862,83.707l0.014-0.004c0.012-0.137,0.021-0.231,0.024-0.272
						C22.895,83.465,22.883,83.549,22.862,83.707z"/>
					<path fill="#C9C9C9" d="M22.867,83.86l0.002-0.031C22.827,83.841,22.813,83.849,22.867,83.86z"/>
					<path fill="#C9C9C9" d="M22.357,85.216c-0.239-0.188-0.495-0.581-0.859-0.2C21.791,85.15,21.998,84.933,22.357,85.216z"/>
					<path fill="#C9C9C9" d="M22.333,84.018l-0.098,0.34c0.113-0.006,0.277-0.068,0.396,0.025L22.333,84.018z"/>
					<polygon fill="#C9C9C9" points="22.197,83.851 22.333,84.018 22.369,83.892 					"/>
					<path fill="#C9C9C9" d="M23.029,82.218c-0.186-0.146-0.202-0.308-0.231-0.489c-0.084,0.195-0.129,0.396-0.128,0.588
						C22.803,82.343,23.044,82.427,23.029,82.218z"/>
					<path fill="#C9C9C9" d="M22.91,82.942l-0.024-0.033C22.85,82.929,22.838,82.945,22.91,82.942z"/>
					<path fill="#C9C9C9" d="M22.8,79.939c-0.024,0.009-0.052,0.02-0.078,0.029l0.074,0.006L22.8,79.939z"/>
					<path fill="#C9C9C9" d="M22.589,82.349c-0.083,0.146,0.022,0.233,0.154,0.317c-0.043-0.109-0.071-0.226-0.074-0.35
						C22.608,82.304,22.568,82.302,22.589,82.349z"/>
					<path fill="#C9C9C9" d="M23.229,81.136c-0.089,0.076-0.165,0.162-0.235,0.254C23.129,81.315,23.34,81.163,23.229,81.136z"/>
					<path fill="#C9C9C9" d="M23.004,82.859c0.007,0.008,0.015,0.015,0.019,0.022C23.115,82.834,23.07,82.84,23.004,82.859z"/>
					<path fill="#C9C9C9" d="M23.004,82.859c-0.062-0.075-0.167-0.134-0.261-0.193c0.034,0.089,0.08,0.172,0.143,0.243
						C22.916,82.891,22.962,82.873,23.004,82.859z"/>
					<path fill="#C9C9C9" d="M20.057,79.397c0.396,0.026,0.762,0.411,0.337,0.743c0.297,0.326,1.6,0.113,2.328-0.172
						c-0.173-0.011-0.333-0.011-0.566-0.347c-0.216,0.117-0.506,0.746-0.864,0.462c-0.204-0.445,0.14-0.365,0.35-0.581
						c-0.494,0.184-0.718-0.567-1.444-0.471l0.255,0.392C20.34,79.431,20.16,79.289,20.057,79.397z"/>
					<path fill="#C9C9C9" d="M22.682,80.609l0.049,0.138c0.069-0.157,0.227-0.271,0.537-0.478c-0.193-0.231-0.34-0.279-0.472-0.295
						l-0.055,0.682L22.682,80.609z"/>
					<path fill="#C9C9C9" d="M22.733,81.369c-0.431-0.108-0.614-0.44-1.081-0.237c0.03,0.407,0.36,0.285,0.547,0.528
						c-0.107-0.656,0.24,0.188,0.484-0.286c0.073,0.129,0.096,0.245,0.114,0.354c0.052-0.118,0.117-0.232,0.197-0.339l-0.027,0.015
						l0.001,0.003h-0.007c-0.054,0.028-0.086,0.037-0.055,0.005c-0.005-0.002-0.007-0.01-0.009-0.013
						c-0.06-0.005-0.112-0.018-0.163-0.03c0.089-0.189,0.112-0.029,0.163,0.03l0.064,0.008l0.005-0.003l-0.236-0.657
						C22.671,80.887,22.684,81.061,22.733,81.369z"/>
					<path fill="#C9C9C9" d="M20.571,84.665c0.038-0.021,0.069-0.02,0.1-0.021C20.619,84.602,20.583,84.585,20.571,84.665z"/>
					<path fill="#C9C9C9" d="M20.832,84.395c0.06,0.048,0.232,0.088,0.188,0.243c-0.129,0.135-0.207-0.001-0.348,0.007
						c0.114,0.093,0.309,0.327,0.519,0.033l-0.059-0.046c0.148-0.265,0.686-0.604,0.745-0.558
						C21.488,84.15,21.212,84.219,20.832,84.395z"/>
					<path fill="#C9C9C9" d="M21.672,82.863l-0.211-0.547l-0.373,0.278l0.224-0.015C21.224,82.892,21.5,82.824,21.672,82.863z"/>
					<polygon fill="#C9C9C9" points="23.015,79.877 23.47,79.949 22.827,79.634 					"/>
					<polygon fill="#C9C9C9" points="22.96,79.166 23.356,79.192 23.117,79.005 					"/>
					<path fill="#C9C9C9" d="M18.05,39.062l-0.112-0.16C17.972,38.978,18.01,39.026,18.05,39.062z"/>
					<path fill="#C9C9C9" d="M18.023,40.226l0.195,0.028C18.11,40.2,18.031,40.178,18.023,40.226z"/>
					<path fill="#C9C9C9" d="M22.916,61.713c0.37-0.234,0.943-0.496,0.498-0.468l-0.434,0.071
						C23.057,61.48,23.009,61.605,22.916,61.713z"/>
					<path fill="#C9C9C9" d="M20.325,49.759l-0.132,0.068c0.148,0.057,0.287,0.109,0.415,0.158
						C20.521,49.915,20.425,49.839,20.325,49.759z"/>
					<path fill="#C9C9C9" d="M18.53,49.594l0.28-0.309C18.712,49.354,18.619,49.453,18.53,49.594z"/>
					<path fill="#C9C9C9" d="M17.59,32.708l-0.442-0.188C17.15,32.814,17.373,32.685,17.59,32.708z"/>
					<path fill="#C9C9C9" d="M22.8,71.888c0.169-0.202,0.241-0.363,0.262-0.504C22.813,71.627,22.439,71.823,22.8,71.888z"/>
					<path fill="#C9C9C9" d="M22.654,39.52c-0.079-0.098-0.167-0.14-0.264-0.137C22.464,39.483,22.547,39.541,22.654,39.52z"/>
					<path fill="#C9C9C9" d="M23.061,70.8c-0.043,0.036-0.065,0.071-0.102,0.107c0.073,0.147,0.131,0.296,0.104,0.477
						C23.248,71.204,23.362,70.998,23.061,70.8z"/>
					<path fill="#C9C9C9" d="M17.949,9.665c0.02-0.017,0.029-0.037,0.052-0.052C17.942,9.607,17.939,9.631,17.949,9.665z"/>
					<path fill="#C9C9C9" d="M22.327,2.952c0.027,0.066,0.027,0.174,0.033,0.275C22.39,3.178,22.387,3.095,22.327,2.952z"/>
					<path fill="#C9C9C9" d="M23.149,76.307C23.178,76.457,23.197,76.331,23.149,76.307L23.149,76.307z"/>
					<path fill="#C9C9C9" d="M21.434,77.04c-0.049-0.032-0.111-0.057-0.211-0.061C21.327,76.992,21.394,77.013,21.434,77.04z"/>
					<path fill="#C9C9C9" d="M20.36,69.299l0.001-0.014C20.277,69.331,20.293,69.322,20.36,69.299z"/>
					<path fill="#C9C9C9" d="M22.952,76.533c0.053-0.057,0.098-0.121,0.129-0.192C23.047,76.372,23.005,76.431,22.952,76.533z"/>
					<path fill="#C9C9C9" d="M23.157,76.503c-0.017,0.053-0.03,0.094-0.042,0.132C23.188,76.653,23.233,76.637,23.157,76.503z"/>
					<path fill="#C9C9C9" d="M23.126,76.097c0.007,0.087-0.014,0.167-0.045,0.244c0.029-0.029,0.054-0.042,0.068-0.034
						C23.145,76.263,23.138,76.199,23.126,76.097z"/>
					<path fill="#C9C9C9" d="M19.11,22.012c0.014-0.01,0.022-0.022,0.041-0.033C18.971,21.827,19,21.895,19.11,22.012z"/>
					<path fill="#C9C9C9" d="M18.41,57.789c0.004,0.007,0.016,0.011,0.021,0.018l0.015-0.022L18.41,57.789z"/>
					<path fill="#C9C9C9" d="M18.087,57.248c0.54,0.23,0.474,0.361,0.359,0.536l1.251-0.179L18.087,57.248z"/>
					<path fill="#C9C9C9" d="M17.925,36.276l-0.39,0.381c-0.642-0.459-0.42-0.792-0.969-0.435c1.358,0.054,0.139,1.478,1.496,1.53
						l-0.286,0.251c0.013-0.072-0.067-0.083-0.053-0.154c-0.65,0.487,0.982,0.362,0.789,0.99c-0.104,0.219-0.301,0.371-0.462,0.222
						l0.336,0.488c-0.026,0.142-0.262,0.107-0.236-0.034l0.108,0.744l-0.04-0.006c0.213,0.106,0.542,0.347,0.683,0.464
						c-0.195,0.189-0.144-0.095-0.313-0.046l0.329,0.411c-0.352,0.168-0.693-0.173-0.643-0.458c-1.356,0.385,0.342,0.343-0.45,1.172
						l-0.172-0.389c-0.771,0.251-0.491,0.555-0.972,0.994c0.251-0.104,1.21-0.881,1.549-0.434c-0.103,0.126-0.151,0.292,0.122,0.533
						c-0.483,0.002-0.364,0.238-0.337,0.533l-0.64-0.021c0.185,0.318,0.51,0.293,0.798,0.48c-0.063,0.354-0.559,0.429-0.976,0.512
						c-0.102,0.569,0.794-0.393,0.915,0.28c-0.245,0.474,0.017,0.805,0.399,1.371c-0.22,0.331-0.391-0.058-0.574,0.061l0.51,0.294
						c-0.012,0.071-0.169,0.048-0.248,0.036c0.198,0.248,0.639,0.021,0.813,0.409c0.705,0.104-1.03,0.798-0.229,1.279
						c-0.182,0.118-0.392-0.058-0.64-0.021c0.525,0.66,0.381,0.565,1.088,1.107l-0.42,0.462c0.48-0.34,1.049,0.094,1.516,0.474
						c0.232-0.12,0.435-0.224,0.532-0.292l0.343,0.605c-0.105,0.073-0.325,0.012-0.592-0.087c0.053,0.041,0.105,0.08,0.153,0.11
						c-0.236,0.217-0.605,0.104-0.963-0.05c0.128-0.071,0.262-0.146,0.395-0.219c-0.389-0.149-0.819-0.29-1.193-0.258
						c0.074,0.038,0.137,0.114,0.173,0.197c-0.105-0.038-0.2-0.063-0.264-0.046c-0.067,0.021,0.074,0.084,0.237,0.184l-0.713,0.138
						l0.283,0.033l-0.446,0.793c0.718,0.566,1.774,1.06,2.069,1.959c-0.523-0.223-0.854-0.048-1.474-0.06
						c0.656-0.245-0.279-0.697-0.146-1.163c-0.069,0.243-0.364,0.189-0.467,0.128l0.597,0.831c-0.507-0.019-0.38,0.177-0.589,0.395
						c1.001-0.164,0.667,0.62,0.974,0.958c-0.336,0.021-0.68-0.06-0.599-0.473c-0.754,0.455,1.176,0.589,0.536,1.035
						c-0.008-0.101,0.043-0.154-0.127-0.194c0.299,0.235,0.062,0.811-0.231,0.676l-0.007-0.101
						c-0.119,0.669-0.007,2.038,0.843,2.138c-0.11,0.006-1.025-0.088-1.197-0.128l2.862,1.193c-0.73-0.104-2.47,0.299-2.883-0.256
						c-0.104,0.159-0.226,0.356,0.032,0.692c0.104-0.108,1.056-0.271,1.123-0.123c-0.813,0.408-0.435,0.284-1.128,0.786
						c0.157-0.162,1.302,0.019,1.266,0.276c-0.171-0.041-1.131,0.021-1.25-0.073l1.125,0.642c-0.203-0.16-0.953-0.028-1.271,0.115
						c0.22-0.067-0.021,0.554,0.091,0.725l0.261-0.271c-0.17,0.724,1.582,0.715,1.522,1.433c-0.232-0.087-1.43-0.215-1.571,0.15
						c0.576,0.167,2.771,0.741,3.214,1.377l-0.329,0.121l0.375,0.487c-0.867-0.304-2.69-1.155-3.4-1.62
						c-0.261,0.271-0.388,0.075-0.358,0.48c-0.309,0.144-0.468-0.221-0.486-0.34l-0.199,0.944c0.673-0.042,0.674,0.722,1.234,0.686
						l-0.697-1.025c0.671-0.041,1.908,0.594,1.79,1.263c-0.268,0.17-1.197-0.127-1.421-0.113c0.231,0.087,0.442,0.635,0.278,0.696
						l-0.359-0.284c-0.253,0.373,0.891,0.608,0.25,1.056c-0.043,0.155-0.866,0.462-0.468,0.488c0.767-0.252,3.14-0.302,3.716-0.134
						c-0.052,0.055-0.733,0.812-1.112,0.988c-0.602,0.254-1.434-0.383-1.95-0.166c0.184,0.01,0.41,0.15,0.483,0.209
						c-0.157,0.162-0.569-0.067-0.486,0.285c0.682,0.059-0.058,0.718,0.576,0.167c0.195,0.345-0.14,0.366-0.11,0.771
						c0.44-0.129,1.499,0.363,1.693,0.709c-0.173-0.021-0.399,0.058-0.502,0.095c-0.062,0.707-0.371,1.087-0.377,1.745
						c-0.165,0.062-0.365,0.38-0.658,0.244c0.121,0.095,0.352,0.182,0.368,0.385c-0.589,0.394-0.092-0.453-0.8-0.153
						c0.396,0.026,0.546,0.526,0.794,0.815c0.612-0.089,0.117-0.669-0.13-0.959c0.844-0.001,1.728,0.504,2.118,1.192
						c0.209,0.548-0.545,0.237-0.425,0.333c-0.147,1.028,1.474,0.876,0.865,1.73c-0.538,0.338-1.07,0.015-1.458,0.09
						c-0.204-0.445,0.341-0.685,0.32-0.987l-0.254,0.373c-0.179-0.143-0.314-0.44-0.159-0.603c-0.483,0.284-0.093,1.737-0.539,2.531
						c0.18,0.141,0.367,0.385,0.583,0.27l-0.075-0.252c0.434-0.23,0.6,0.474,0.802,0.155c0.305,0.337,0.784,0.714,0.539,1.188
						l-0.613,0.089c0.179-0.01,0.365-0.31,0.179-0.442c0.271,0.197-0.83,0.727-0.027,0.943l0.425-0.333
						c0.308,0.339,0.959,0.757,0.766,1.177c0.605-0.191-0.069-0.097,0.639-0.396c-0.881,0.259,0.037-1.074-0.889-0.659
						c0.822-0.307,0.349-0.53,1.05-0.931c-0.202,0.012-0.387,0.143-0.287-0.211c-0.059-0.016-0.134-0.054-0.178-0.077
						c0.006-0.011,0.009-0.015,0.015-0.024l-0.024,0.02c-0.03-0.015-0.037-0.017-0.008,0.008c-0.088,0.084-0.195,0.151-0.308,0.18
						c-0.464-0.175-0.45-0.736-0.69-0.926c0.096-0.21,0.232,0.088,0.448-0.027l-0.359-0.283c0.449-0.028,0.746-0.556,1.009-0.062
						l0.02-0.444c0.252-0.262,0.352-0.62,0.163-0.842c0.097-0.21-0.497-0.529-0.146-0.347l-0.278-0.696l0.112-0.006
						c0.057-0.688-0.744-1.414,0.067-2.199c-0.113-0.231-0.252-0.471-0.125-0.857l0.389-0.075c-0.136-0.297,0.389-0.892-0.016-1.019
						c1.045-0.321,0.228-1.441,0.414-1.963l-0.507-0.021c0.029-0.359-0.115-0.704-0.319-1.149l-0.448,0.027
						c-0.368-0.385,0.319-0.989,0.273-1.598c0.171,0.041,0.126,0.196,0.023,0.305c1.013-0.727-0.737-1.533,0.001-2.192
						c-0.163-0.164-0.107-0.283,0.005-0.398c0.001,0.016,0.009,0.029,0.023,0.041c0.005-0.017,0.006-0.042,0.005-0.067
						c0.077-0.072,0.167-0.147,0.239-0.228c-0.109,0.068-0.199,0.134-0.24,0.191c-0.009-0.127-0.065-0.319-0.177-0.508l0.481-0.08
						c-0.006-0.015-0.005-0.027-0.014-0.043c0.178-0.186-0.228-0.149-0.59-0.05c-0.079-0.095-0.174-0.183-0.291-0.249
						c0.777-0.15-0.262-0.495,0.567-0.699c-0.404-0.127-0.304-0.946-1.155-1.048c0.111-0.006,0.164-0.062,0.17,0.04
						c0.097-0.21,0.194-0.42-0.046-0.607l0.612-0.089l-0.823-0.459c0.373-0.279,0.59-0.394,1.061-0.117
						c-0.725-0.668-0.273-0.542-0.991-1.11l0.396,0.028c-0.015-0.203-0.545-0.528-0.218-0.65c0.752-0.454,0.104-2.246,0.803-3.412
						c-1.166,0.226,0.522-0.542-0.381-0.588c0.275-0.067,0.431-0.23,0.671-0.042c-0.271-0.595,0.437-0.894-0.325-1.305
						c0.277-0.067,0.404,0.128,0.568,0.067c-0.06-0.048-0.24-0.189-0.075-0.251c0.164-0.061,0.231,0.087,0.352,0.182
						c-0.046-0.607-0.896-0.67-1.693-0.714c0.377-0.308,0.324-0.462-0.199-0.684c0.261-0.107,0.534-0.286,0.627,0.091
						c0.038-0.212,0.382-1.297-0.257-1.318c0.162-0.066,0.047-0.297-0.026-0.354c0.038-0.477,0.096-0.518,0.035-0.986l-0.104,0.13
						c-0.771-0.185-0.172-0.389-0.265-0.767l0.079,0.012c0.556-0.866-0.267-0.374,0.368-1.228l-0.479,0.046
						c-1.032-0.079,0.608-0.756,0.214-1.251l-0.274,0.179c-0.353-0.271,1.403-0.756,1.532-1.027c0.09-0.06,0.144,0.093,0.21,0.176
						c0.608-0.712-0.628-0.092-0.774-0.623c0.339-0.097,0.862,0.127,0.925-0.23c0.274-0.178-1.1-1.034-0.45-1.521
						c-0.261,0.107-0.522,0.214-0.718-0.032c-0.093-0.377,0.987-1.021,0.164-1.361c0.071-0.048,0.14-0.065,0.205-0.067
						c-0.212-0.289-0.353-0.938-0.799-1.111c1.657-0.267-0.806-1.794,0.722-1.787l-0.082-0.888l0.156,0.023
						c0.101-0.567-0.265-0.768-0.632-0.967c0.104-0.131,0.247-0.035,0.327-0.024c0.308-0.829,0.243-0.912-0.518-1.606l0.496-0.073
						c-0.288-0.188,0.777-1.198,0.199-2.01c0.056,0.008,0.152,0.024,0.222,0.089c-0.582-0.915,1.375-2.189-0.43-2.524l-0.445-0.604
						c-0.14,0.781-0.783-0.116-1.083,0.205c-0.106-0.307,0.544-0.794,0.637-0.417l-0.09,0.059c0.941,0.139,0.333-0.97,0.974-0.95
						c-0.046-1.536,0.475-3.033,0.515-4.472l-0.731,0.166l0.042-0.502c0.17-0.132,0.572-0.177,0.542,0.182
						c0.415-0.188-0.347-0.601-0.506-0.611c0.296-0.701,0.853,0.274,0.871,0.059l-0.055-0.292l-0.085,0.066
						c-0.299-0.236-0.616-0.258-0.58-0.688c0.146-0.272,0.451-0.14,0.479-0.247c0.052,0.001,0.076-0.035,0.021-0.165l0.062-0.632
						l-0.578,0.253c-0.285-0.28,0.03-0.595-0.624-0.303c1.009-0.428,0.362-2.359,0.675-2.622c-0.421-0.393-0.414-0.78-0.363-1.26
						c-0.12,0.119-0.77,0.19-0.69-0.223c1.34,0.151,0.582-0.758,1.545-1.093c-0.639,0.299-0.158-1.177-1.065-0.708
						c0.108-0.345,0.501-0.021,0.817-0.284c-0.519-0.822,0.337-1.812,0.162-2.828c-0.176-0.016-0.445,0.154-0.707-0.064l0.879-0.537
						c-0.086-0.201-1.015-0.185-0.405-0.551c-0.148,0.052-0.371,0.129-0.427-0.006c0.857-1.991-0.702-4.068,0.908-6.091
						c-0.341,0.274-0.375,0.092-0.387-0.118c-0.082,0.136-0.435-0.002-0.673,0.024l0.662-0.846
						c-0.662-0.154-0.045-0.908-0.677-0.996l0.114,0.268c-0.747-0.356-1.659,0.5-2.617,0.447c0.849,0.399-1.257,1.052-0.042,1.708
						c-0.195,0.144-0.309-0.124-0.531-0.046c0.411,0.166,0.496,0.366,0.312,0.738l-0.102-0.042c0.1,1.044-0.305,1.492-0.574,2.664
						l0.474-0.086c-0.063,0.252-0.212,0.305-0.331,0.422c0.718,0.29,0.041-0.707,0.833-0.444c-0.964,0.334-0.015,1.777-1.11,2.003
						c-0.006,0.388,0.548-0.114,0.542,0.274l-0.296,0.103l0.382,0.098c-0.063,0.254-0.434,0.382-0.685,0.392
						c0.03-0.062-0.07-0.175-0.092-0.242c-0.349,0.33,0.119,0.929,0.005,1.042l0.183-0.372c0.277,1.058-0.112,2.349,0.491,3.371
						l0.224-0.077c0.414,0.78-0.246,0.625-0.054,1.482l-0.053-0.031c0.223,0.171,0.335,0.4,0.31,0.635
						c-0.262-0.217-0.509,0.407-0.798,0.123c0.444,0.847,0.349,0.419,1.179,0.978l-0.371,0.129c0.335,0.19,0.512,0.206,0.608,0.634
						c-0.318-0.351-0.565,0.273-0.986-0.12c-0.811,0.897,0.819,1.333-0.367,1.746c1.026,0.412,0.57-0.777,0.79-0.546
						c0.335-0.194,0.767,0.34,0.664,0.623c-0.023,0.287-1.313,0.487-1.293,1.209c0.005-0.072-0.073-0.077-0.068-0.148
						c-0.262,0.27,0.354,0.529-0.071,0.86c0.621,0.186-0.036,0.431,0.756,0.483l-0.183-0.662c0.207,0.375,1.133,0.727,0.684,1.345
						c-0.16-0.048-0.37-0.231-0.487-0.358c-0.233,0.18,0.155,0.348-0.085,0.535c-0.792-0.053-0.172-0.805-0.776-1.207
						c-0.334,0.194,0.574,0.761-0.284,0.559c1.091,0.291-0.138,0.711,0.695,1.2l-0.475-0.032c0.075,0.077,0.299,0.238,0.287,0.38
						l-0.615-0.258c0.525,0.396-0.459,0.763-0.173,1.142c-0.015-0.794,0.572-0.178,0.918-0.514c0.635,0.98-1.241,0.564-1.014,1.661
						c-0.067-0.148,0.285-0.558,0.505-0.325c-0.098,0.208-0.28,0.484-0.529,0.613c0.099,0.727,0.488-0.112,0.78,0.198
						c-0.578,0.248,0.235,0.357,0.42,0.676l-0.482,0.002c-0.31,0.829,1.005,0.219,0.631,0.966l-0.669-0.316l0.173,0.389L17.868,27.6
						c0.407,0.424,0.302,0.555,0.148,0.97c0.34-0.097,0.875,0.054,0.891,0.421c-0.287,0.25-0.458-0.141-0.39,0.379
						c-0.302-0.117-0.681-0.246-0.236-0.473c-0.157-0.023-0.303-0.116-0.458-0.14c-0.33,0.27-0.075,0.677-0.071,0.866
						c0.018-0.072,0.044-0.159,0.113-0.203l0.668,0.754c-0.181,0.119-0.327,0.024-0.469-0.069c0.052,0.153,0.274,0.258,0.315,0.483
						c-0.392-0.058-0.797-0.044-0.981-0.362l0.435,0.718c-0.17,0.048-0.468,0.369-0.613,0.275c-0.23,0.398,0.761,0.977,0.457,1.505
						c0.076,0.027,0.149,0.082,0.205,0.194c-0.089,0.497-0.57,0.937-0.032,1.524l-0.703,0.334c0.16,0.461,0.886-0.451,1.151,0.315
						c0.224,0.543-0.6,0.202-0.795,0.394c0.354,0.27,1.076,0.739,0.503,1.238C17.873,36.561,17.977,36.431,17.925,36.276z
						 M18.236,41.958c-0.101-0.11-0.414-0.329-0.129-0.409C18.66,41.674,18.396,41.771,18.236,41.958z M19.398,50.595
						c-0.16-0.081-0.081-0.208,0.102-0.352C19.54,50.348,19.521,50.465,19.398,50.595z M22.757,74.654l-0.023-0.012
						C22.921,74.397,22.847,74.484,22.757,74.654z M22.547,75.165c0.067,0.051,0.134,0.047,0.202,0.025
						c-0.122-0.035-0.13-0.149-0.096-0.28C22.526,74.946,22.439,75.013,22.547,75.165z M22.357,20.402l-0.126,0.099
						C22.092,20.277,22.218,20.34,22.357,20.402z"/>
					<path fill="#C9C9C9" d="M18.738,49.616c0.082-0.031,0.171-0.04,0.262-0.047C18.919,49.525,18.825,49.524,18.738,49.616z"/>
					<path fill="#C9C9C9" d="M17.671,32.743c0.004-0.006,0.002-0.012,0.005-0.017c-0.029-0.01-0.058-0.015-0.087-0.018
						L17.671,32.743z"/>
					<path fill="#C9C9C9" d="M18.457,67.266c0.069-0.105,0.158-0.164,0.249-0.203C18.588,67.058,18.488,67.105,18.457,67.266z"/>
					<path fill="#C9C9C9" d="M23.367,77.867l-0.125-0.327c0.024,0.158-0.082,0.215-0.158,0.294
						C23.196,77.827,23.359,77.765,23.367,77.867z"/>
					<path fill="#C9C9C9" d="M20.382,80.702c0.059,0.048,0.006,0.101,0.066,0.148l0.224-0.013
						C20.658,80.634,20.477,80.492,20.382,80.702z"/>
					<path fill="#C9C9C9" d="M21.764,78.169c-0.406,0.026-0.268,0.23-0.193,0.46c-0.001-0.014-0.005-0.026,0-0.041
						C22.139,78.656,21.951,78.412,21.764,78.169z"/>
					<path fill="#C9C9C9" d="M21.585,78.682c0.019,0.071,0.03,0.143,0.01,0.212C21.823,78.92,21.643,78.808,21.585,78.682z"/>
					<path fill="#C9C9C9" d="M22.816,75.812c-0.104,0.108,0.519,0.068,0.354,0.13C23.687,76.062,22.545,75.218,22.816,75.812z"/>
					<polygon fill="#C9C9C9" points="20.427,78.354 20.928,78.272 20.524,78.145 					"/>
					<path fill="#C9C9C9" d="M20.795,76.548l-0.139,0.365c0.084-0.005,0.133,0.041,0.171,0.099
						C20.844,76.786,20.943,76.539,20.795,76.548z"/>
					<path fill="#C9C9C9" d="M20.827,77.012c-0.01,0.117,0.001,0.229,0.083,0.294C20.905,77.242,20.888,77.105,20.827,77.012z"/>
					<polygon fill="#C9C9C9" points="20.277,77.854 20.381,77.746 20.418,77.488 					"/>
					<path fill="#C9C9C9" d="M20.892,72.617l-0.144-0.398c-0.172-0.041-0.277,0.067-0.208,0.217
						C20.659,72.53,20.726,72.679,20.892,72.617z"/>
					<path fill="#C9C9C9" d="M19.52,73.824c0.104-0.108,0.216-0.115,0.381-0.176l-0.621-0.012L19.52,73.824z"/>
					<path fill="#C9C9C9" d="M19.375,72.66c-0.172-0.039-0.495-0.579-0.456-0.073C19.09,72.628,19.233,73.027,19.375,72.66z"/>
					<polygon fill="#C9C9C9" points="20.16,66.648 20.168,66.75 21.187,66.735 					"/>
					<path fill="#C9C9C9" d="M17.724,61.349c-0.244,0.474,0.628,0.112,0.324,0.54c0.241,0.111,0.249-0.349,0.457-0.235
						C18.25,61.368,18.394,61.218,17.724,61.349z"/>
					<path fill="#C9C9C9" d="M18.504,61.653c0.04,0.046,0.089,0.095,0.155,0.146C18.595,61.717,18.546,61.678,18.504,61.653z"/>
					<polygon fill="#C9C9C9" points="22.874,1.838 23.086,1.534 22.744,1.73 					"/>
					<path fill="#C9C9C9" d="M22.119,1.254l0.649-0.072L22.18,1C22.209,1.069,22.265,1.202,22.119,1.254z"/>
					<path fill="#C9C9C9" d="M16.929,42.803l0.156,0.023c0.169-0.047,0.182-0.118,0.208-0.261L16.929,42.803z"/>
					<polygon fill="#C9C9C9" points="17.415,38.679 17.401,38.75 17.988,38.617 					"/>
					<path fill="#C9C9C9" d="M16.666,35.219c-0.024,0.141,0.106,0.307,0.082,0.449C16.642,35.359,17.398,35.18,16.666,35.219z"/>
				</g>
			</g>
		</g>
	</g>
</g>
<g>
	<g>
		<g>
			<g>
				<g>
					<path fill="#C9C9C9" d="M22.546,85.04c-0.005-0.05-0.185,0.331-0.221,0.396C22.393,85.377,22.598,84.943,22.546,85.04z"/>
					<polygon fill="#C9C9C9" points="23.542,84.589 23.421,84.709 23.777,84.47 					"/>
					<path fill="#C9C9C9" d="M24.017,85.109c0.507-0.501-0.262-0.156-0.156-0.405l0.103-0.126l-0.453,0.364
						C23.672,84.937,24.095,84.905,24.017,85.109z"/>
					<path fill="#C9C9C9" d="M23.018,86.353c0.212-0.183,0.25-0.059,0.013-0.136c-0.021,0.025-0.032,0.038-0.047,0.057
						C22.997,86.285,23.011,86.307,23.018,86.353z"/>
					<path fill="#C9C9C9" d="M22.984,86.273C22.919,86.213,22.826,86.455,22.984,86.273L22.984,86.273z"/>
					<path fill="#C9C9C9" d="M23.342,86.516l-0.27,0.045c-0.122,0.112-0.096,0.216-0.216,0.252
						C23.034,86.83,23.157,86.722,23.342,86.516z"/>
					<path fill="#C9C9C9" d="M23.842,86.322c-0.002-0.004-0.125,0.003-0.125,0.003C23.667,86.375,23.651,86.394,23.842,86.322z"/>
					<path fill="#C9C9C9" d="M23.459,86.343l0.257-0.018c0.086-0.078,0.277-0.21-0.1-0.005
						C23.797,86.211,23.614,86.303,23.459,86.343z"/>
					<path fill="#C9C9C9" d="M23.508,86.221c0.091-0.143,0.121-0.271,0.393-0.312C23.688,85.773,23.299,86.094,23.508,86.221z"/>
					<path fill="#C9C9C9" d="M24.624,84.688l0.106-0.201l-0.235,0.089C24.612,84.531,24.452,84.83,24.624,84.688z"/>
					<path fill="#C9C9C9" d="M23.581,87.514c0.127-0.083,0.292-0.286,0.445-0.407l-0.207,0.007
						C23.77,87.224,23.751,87.368,23.581,87.514z"/>
					<path fill="#C9C9C9" d="M24.026,87.106c-0.008-0.006,0.33,0.002,0.33,0.002C24.264,86.944,24.159,87.002,24.026,87.106z"/>
					<path fill="#C9C9C9" d="M24.516,85.904c-0.008-0.012-0.585,0.114-0.585,0.114s0.612-0.088,0.621-0.076L24.516,85.904z"/>
					<polygon fill="#C9C9C9" points="24.101,88.193 23.751,88.322 24.298,88.15 					"/>
					<path fill="#C9C9C9" d="M24.57,88.599c-0.287,0.128-0.234,0.457-0.447,0.502c0.176,0.097,0.466,0.022,0.715-0.055
						C24.647,89.043,24.546,88.905,24.57,88.599z"/>
					<path fill="#C9C9C9" d="M25.219,88.948c-0.097,0.007-0.232,0.054-0.381,0.098C24.94,89.048,25.06,89.025,25.219,88.948z"/>
					<path fill="#C9C9C9" d="M24.514,87.429c-0.061,0.069-0.229,0.245-0.23,0.404l0.276-0.338
						C24.546,87.475,24.53,87.452,24.514,87.429z"/>
					<path fill="#C9C9C9" d="M24.569,87.484l-0.009,0.011c0.046,0.075,0.079,0.129,0.092,0.151
						C24.642,87.627,24.617,87.578,24.569,87.484z"/>
					<path fill="#C9C9C9" d="M24.503,87.411l0.011,0.018C24.542,87.396,24.55,87.384,24.503,87.411z"/>
					<path fill="#C9C9C9" d="M24.44,86.478c0.251-0.056,0.57-0.044,0.76-0.411C24.923,86.179,24.816,86.391,24.44,86.478z"/>
					<path fill="#C9C9C9" d="M24.859,87.002l-0.05-0.22c-0.088,0.07-0.196,0.2-0.327,0.226L24.859,87.002z"/>
					<polygon fill="#C9C9C9" points="25.028,86.995 24.859,87.002 24.879,87.084 					"/>
					<path fill="#C9C9C9" d="M25.154,88.349c0.206-0.062,0.3,0.003,0.416,0.067c-0.05-0.158-0.123-0.287-0.221-0.378
						C25.243,88.123,25.03,88.254,25.154,88.349z"/>
					<path fill="#C9C9C9" d="M24.854,87.897h0.035C24.905,87.863,24.906,87.847,24.854,87.897z"/>
					<path fill="#C9C9C9" d="M26.643,89.15c0.006-0.024,0.013-0.054,0.019-0.079l-0.04,0.062L26.643,89.15z"/>
					<path fill="#C9C9C9" d="M25.387,87.965c-0.016-0.129-0.132-0.095-0.27-0.044c0.087,0.023,0.166,0.06,0.231,0.117
						C25.396,88,25.425,87.972,25.387,87.965z"/>
					<path fill="#C9C9C9" d="M25.648,89.027c0.004-0.104-0.005-0.202-0.019-0.296C25.592,88.869,25.564,89.105,25.648,89.027z"/>
					<path fill="#C9C9C9" d="M24.829,88.004l-0.025,0.002C24.762,88.094,24.792,88.06,24.829,88.004z"/>
					<path fill="#C9C9C9" d="M24.829,88.004c0.084-0.004,0.191-0.047,0.289-0.083c-0.069-0.021-0.145-0.029-0.228-0.023
						C24.876,87.928,24.853,87.969,24.829,88.004z"/>
					<path fill="#C9C9C9" d="M27.568,87.288c0.14-0.087,0.292-0.148,0.404-0.162l0.046-0.007l-0.117,0.087
						c-0.121,0.089-0.227,0.05-0.18-0.214c-0.277,0.175-0.894,1.329-1.06,2.079c0.089-0.148,0.172-0.283,0.47-0.378
						c0.022-0.236-0.157-0.687,0.167-0.908c0.26-0.039,0.16,0.146,0.133,0.359l-0.002,0.017l1.416-1.618
						c0.026-0.03,0.05-0.062,0.069-0.095c-0.36,0.345-0.754,0.181-1.329,0.623l0.319,0.007
						C27.812,87.144,27.624,87.189,27.568,87.288z"/>
					<path fill="#C9C9C9" d="M26.29,88.793l-0.111-0.012c0.058,0.119,0.039,0.294,0.018,0.646c0.252-0.071,0.352-0.185,0.426-0.293
						l-0.394-0.31L26.29,88.793z"/>
					<path fill="#C9C9C9" d="M25.803,88.534c0.333-0.294,0.615-0.328,0.782-0.775c-0.225-0.109-0.358,0.185-0.598,0.229
						c0.39,0.204-0.249,0.103-0.157,0.506c-0.115-0.001-0.19-0.04-0.26-0.077c0.029,0.096,0.05,0.201,0.06,0.315l0.008-0.028h-0.002
						l0.004-0.005c0.018-0.057,0.033-0.086,0.031-0.046c0.004-0.004,0.01-0.002,0.013-0.001c0.039-0.045,0.078-0.081,0.117-0.115
						c0.06,0.147-0.051,0.102-0.117,0.115l-0.044,0.047l-0.002,0.005c0,0,0.541,0.077,0.541,0.078
						C26.127,88.676,26.018,88.62,25.803,88.534z"/>
					<path fill="#C9C9C9" d="M26.05,85.667c-0.025,0.03-0.05,0.048-0.076,0.067C26.028,85.72,26.062,85.705,26.05,85.667z"/>
					<path fill="#C9C9C9" d="M25.92,85.925c-0.062,0.018-0.215,0.104-0.227,0.016c0.068-0.129,0.167-0.12,0.28-0.206
						c-0.117,0.03-0.34,0.05-0.43,0.29l0.061-0.017c-0.04,0.19-0.345,0.668-0.407,0.686C25.477,86.421,25.671,86.222,25.92,85.925z"
						/>
					<path fill="#C9C9C9" d="M25.796,87.09l0.383,0.071l0.147-0.373l-0.153,0.163C26.111,86.771,25.938,86.987,25.796,87.09z"/>
					<path fill="#C9C9C9" d="M26.58,89.362l-0.267,0.37c0,0,0.13-0.109,0.26-0.219c0.125-0.113,0.25-0.226,0.25-0.226L26.58,89.362z
						"/>
					<polygon fill="#C9C9C9" points="29.916,85.583 30.252,85.373 30,85.432 					"/>
					<path fill="#C9C9C9" d="M13.788,74.717l-0.13,0.036C13.707,74.75,13.749,74.736,13.788,74.717z"/>
					<path fill="#C9C9C9" d="M14.171,75.084l0.141-0.136C14.221,75.012,14.161,75.063,14.171,75.084z"/>
					<path fill="#C9C9C9" d="M24.718,78.874c0.208-0.329,0.559-0.804,0.231-0.501l-0.305,0.311
						C24.754,78.694,24.756,78.773,24.718,78.874z"/>
					<path fill="#C9C9C9" d="M18.948,76.459l-0.07,0.115c0.125-0.086,0.24-0.166,0.348-0.241
						C19.139,76.373,19.045,76.415,18.948,76.459z"/>
					<path fill="#C9C9C9" d="M17.621,77.673l0.096-0.296C17.67,77.469,17.637,77.566,17.621,77.673z"/>
					<path fill="#C9C9C9" d="M11.297,73.172l-0.347,0.283C11.052,73.541,11.151,73.331,11.297,73.172z"/>
					<path fill="#C9C9C9" d="M27.72,82.796c0.078-0.182,0.089-0.288,0.066-0.356C27.657,82.686,27.413,82.987,27.72,82.796z"/>
					<path fill="#C9C9C9" d="M17.02,71.427c-0.088,0.027-0.163,0.08-0.226,0.153C16.88,71.556,16.957,71.513,17.02,71.427z"/>
					<path fill="#C9C9C9" d="M27.619,82.209c-0.025,0.04-0.032,0.067-0.051,0.104c0.1,0.015,0.189,0.038,0.218,0.127
						C27.883,82.256,27.915,82.104,27.619,82.209z"/>
					<path fill="#C9C9C9" d="M3.075,66.628c0.004-0.021,0.001-0.033,0.008-0.057C3.049,66.619,3.056,66.628,3.075,66.628z"/>
					<path fill="#C9C9C9" d="M2.768,61.253c0.041-0.007,0.084,0.021,0.129,0.042C2.892,61.257,2.857,61.238,2.768,61.253z"/>
					<path fill="#C9C9C9" d="M29.259,84.341C29.325,84.385,29.305,84.323,29.259,84.341L29.259,84.341z"/>
					<path fill="#C9C9C9" d="M28.058,85.61c-0.049,0.016-0.107,0.041-0.19,0.097C27.957,85.652,28.018,85.623,28.058,85.61z"/>
					<path fill="#C9C9C9" d="M25.039,83.29l-0.003-0.006C24.983,83.354,24.993,83.34,25.039,83.29z"/>
					<path fill="#C9C9C9" d="M29.162,84.544c0.027-0.053,0.045-0.104,0.051-0.15C29.194,84.426,29.176,84.473,29.162,84.544z"/>
					<path fill="#C9C9C9" d="M29.321,84.415c0.001,0.031,0.002,0.054,0.003,0.076C29.389,84.457,29.421,84.425,29.321,84.415z"/>
					<path fill="#C9C9C9" d="M29.18,84.271c0.03,0.03,0.036,0.074,0.033,0.122c0.016-0.028,0.032-0.047,0.046-0.053
						C29.241,84.327,29.216,84.308,29.18,84.271z"/>
					<path fill="#C9C9C9" d="M8.393,68.935C8.397,68.92,8.4,68.91,8.406,68.892C8.242,68.993,8.284,68.989,8.393,68.935z"/>
					<path fill="#C9C9C9" d="M20.108,80.481c0.005-0.002,0.015-0.006,0.021-0.009l0.004-0.018L20.108,80.481z"/>
					<path fill="#C9C9C9" d="M19.701,80.518c0.471-0.286,0.463-0.197,0.433-0.062l0.871-0.899L19.701,80.518z"/>
					<path fill="#C9C9C9" d="M12.743,73.979l-0.125,0.407c-0.579,0.348-0.546,0.084-0.784,0.604c0.909-1.01,0.595,0.33,1.509-0.674
						l-0.103,0.289c-0.016-0.031-0.073,0.025-0.088-0.006c-0.263,0.632,0.775-0.628,0.865-0.294c0.007,0.143-0.072,0.336-0.23,0.411
						l0.393-0.104c0.031,0.062-0.138,0.228-0.17,0.166l0.33,0.142l-0.029,0.028c0.18-0.127,0.484-0.298,0.62-0.366
						c-0.065,0.201-0.13,0.078-0.227,0.218l0.364-0.119c-0.181,0.312-0.526,0.459-0.592,0.338c-0.779,1.117,0.352-0.153,0.089,0.695
						l-0.244,0.005c-0.439,0.646-0.151,0.535-0.335,1.025c0.138-0.215,0.534-1.166,0.91-1.273c-0.028,0.115-0.007,0.203,0.258,0.079
						c-0.328,0.354-0.17,0.342-0.054,0.416l-0.443,0.461c0.229-0.035,0.444-0.28,0.703-0.432c0.073,0.158-0.242,0.543-0.501,0.873
						c0.115,0.252,0.416-0.702,0.719-0.577c-0.013,0.327,0.275,0.241,0.727,0.146c-0.043,0.264-0.29,0.264-0.377,0.434l0.45-0.275
						c0.015,0.032-0.101,0.137-0.16,0.19c0.219-0.063,0.45-0.454,0.7-0.454c0.526-0.472-0.454,0.992,0.264,0.572
						c-0.088,0.167-0.293,0.262-0.455,0.45c0.586-0.165,0.454-0.093,1.131-0.421l-0.143,0.444c0.227-0.448,0.772-0.712,1.231-0.918
						c0.124-0.202,0.232-0.38,0.278-0.471l0.449-0.044c-0.049,0.099-0.227,0.233-0.45,0.389c0.051-0.024,0.101-0.049,0.146-0.071
						c-0.094,0.236-0.395,0.46-0.701,0.661c0.066-0.111,0.137-0.23,0.207-0.349c-0.326,0.226-0.677,0.484-0.932,0.759
						c0.065-0.039,0.136-0.06,0.188-0.059c-0.088,0.062-0.163,0.121-0.202,0.172c-0.041,0.054,0.081-0.025,0.229-0.109l-0.46,0.547
						l0.212-0.189l-0.056,0.565c0.689-0.314,1.601-0.883,2.101-0.777c-0.448,0.286-0.631,0.575-1.082,1
						c0.396-0.537-0.419-0.041-0.468-0.29c0.026,0.13-0.202,0.317-0.295,0.368l0.688-0.136c-0.371,0.346-0.219,0.323-0.302,0.541
						c0.671-0.748,0.675-0.252,1.004-0.35c-0.238,0.239-0.512,0.447-0.582,0.253c-0.405,0.672,1.037-0.611,0.713-0.019
						c-0.038-0.028-0.017-0.082-0.154,0.021c0.291-0.125,0.299,0.231,0.043,0.386l-0.037-0.029c0.123,0.307,0.63,0.69,1.291,0.151
						c-0.08,0.076-0.785,0.662-0.924,0.765l2.497-1.516c-0.575,0.454-1.741,1.754-2.221,1.844c-0.027,0.124-0.057,0.271,0.24,0.211
						c0.043-0.105,0.701-0.797,0.797-0.791c-0.477,0.681-0.234,0.387-0.595,1.017c0.066-0.158,0.978-0.859,1.033-0.747
						c-0.141,0.101-0.839,0.758-0.958,0.805l1.043-0.528c-0.202,0.08-0.724,0.621-0.918,0.879c0.144-0.166,0.161,0.196,0.289,0.187
						l0.117-0.267c0.083,0.365,1.402-0.783,1.572-0.484c-0.203,0.119-1.147,0.854-1.149,1.076c0.485-0.317,2.325-1.534,2.859-1.582
						l-0.215,0.257l0.436-0.061c-0.76,0.44-2.408,1.308-3.08,1.605c-0.12,0.265-0.274,0.278-0.134,0.401
						c-0.194,0.25-0.421,0.226-0.469,0.196l0.118,0.457c0.503-0.448,0.724-0.181,1.145-0.552l-0.831,0.087
						c0.5-0.449,1.632-1.019,1.74-0.7c-0.156,0.231-0.958,0.719-1.126,0.867c0.203-0.117,0.525-0.058,0.416,0.068l-0.359,0.129
						c-0.088,0.291,0.865-0.351,0.498,0.214c0.012,0.082-0.539,0.708-0.222,0.467c0.524-0.571,2.349-2.088,2.848-2.389
						c-0.023,0.054-0.325,0.761-0.569,1.061c-0.395,0.467-1.232,0.759-1.571,1.16c0.146-0.111,0.364-0.203,0.438-0.229
						c-0.075,0.156-0.464,0.332-0.296,0.405c0.55-0.404,0.164,0.29,0.499-0.3c0.254,0.002-0.002,0.218,0.14,0.344
						c0.308-0.319,1.285-0.797,1.543-0.789c-0.143,0.1-0.297,0.267-0.368,0.343c0.166,0.291,0.028,0.621,0.198,0.876
						c-0.115,0.123-0.188,0.364-0.458,0.49c0.122-0.037,0.329-0.145,0.397-0.077c-0.365,0.502-0.195-0.115-0.68,0.424
						c0.323-0.229,0.577-0.132,0.854-0.171c0.467-0.399-0.088-0.324-0.363-0.283c0.672-0.51,1.516-0.85,2.022-0.813
						c0.321,0.088-0.372,0.416-0.249,0.382c0.165,0.482,1.434-0.529,1.181,0.163c-0.342,0.445-0.865,0.63-1.158,0.886
						c-0.288-0.052,0.088-0.462-0.013-0.566l-0.103,0.293c-0.184,0.05-0.375,0.017-0.293-0.138
						c-0.313,0.393,0.401,0.719,0.253,1.277c0.186-0.051,0.405-0.064,0.55-0.232l-0.13-0.053c0.291-0.339,0.621-0.163,0.699-0.402
						c0.343-0.045,0.842-0.171,0.773,0.154l-0.48,0.382c0.145-0.104,0.215-0.327,0.024-0.272c0.279-0.077-0.482,0.751,0.24,0.381
						l0.258-0.369c0.348-0.044,1.004-0.244,0.963,0.03c0.447-0.415-0.084,0.001,0.417-0.515c-0.656,0.598-0.274-0.447-0.921,0.24
						c0.591-0.587,0.138-0.406,0.6-0.965c-0.163,0.12-0.277,0.277-0.295,0.08c-0.053,0.027-0.125,0.056-0.168,0.071l0.006-0.019
						l-0.014,0.021c-0.029,0.012-0.035,0.015-0.005,0.008c-0.048,0.084-0.117,0.172-0.201,0.247
						c-0.431,0.196-0.576-0.031-0.825,0.033c0.02-0.137,0.214-0.1,0.358-0.269l-0.373,0.097c0.359-0.271,0.451-0.652,0.805-0.609
						l-0.11-0.188c0.13-0.25,0.108-0.452-0.108-0.43c0.019-0.141-0.552,0.083-0.216-0.053l-0.422-0.11l0.088-0.069
						c-0.151-0.308-0.995-0.11-0.571-0.91c-0.158-0.021-0.331-0.035-0.346-0.26l0.285-0.266c-0.199-0.028,0.031-0.575-0.328-0.375
						c0.724-0.766-0.268-0.687-0.284-0.998l-0.401,0.31c-0.089-0.153-0.308-0.192-0.602-0.23l-0.339,0.293
						c-0.402,0.091-0.056-0.57-0.278-0.77c0.144-0.094,0.157-0.007,0.111,0.1c0.553-0.923-1.034-0.099-0.672-0.82
						c-0.174,0.045-0.168-0.036-0.118-0.152c0.005,0.005,0.016,0.005,0.03,0c-0.001-0.01-0.008-0.02-0.017-0.028
						c0.036-0.077,0.081-0.164,0.111-0.241c-0.062,0.097-0.109,0.18-0.123,0.229c-0.046-0.041-0.147-0.077-0.29-0.074l0.339-0.345
						c-0.01-0.002-0.013-0.007-0.024-0.008c0.077-0.186-0.218,0.095-0.461,0.369c-0.089,0.016-0.187,0.046-0.295,0.098
						c0.542-0.568-0.348-0.011,0.206-0.627c-0.345,0.222-0.538-0.134-1.207,0.396c0.081-0.076,0.103-0.131,0.14-0.1
						c0.005-0.138,0.009-0.275-0.231-0.182l0.427-0.439l-0.761,0.39c0.187-0.347,0.31-0.534,0.75-0.752
						c-0.755,0.251-0.38-0.008-1.095,0.277l0.301-0.258c-0.078-0.062-0.573,0.185-0.372-0.08c0.404-0.67-0.652-0.855-0.527-1.748
						c-0.766,0.887,0.199-0.554-0.466,0.058c0.176-0.216,0.234-0.382,0.469-0.481c-0.389-0.021,0.018-0.622-0.661-0.234
						c0.175-0.218,0.33-0.238,0.427-0.374c-0.058,0.023-0.235,0.104-0.14-0.033c0.096-0.135,0.195-0.133,0.314-0.186
						c-0.246-0.173-0.871,0.405-1.452,0.951c0.163-0.367,0.071-0.381-0.375-0.085c0.148-0.22,0.279-0.472,0.476-0.413
						c-0.045-0.097-0.178-0.702-0.635-0.255c0.091-0.137-0.069-0.132-0.14-0.098c-0.137-0.185-0.111-0.239-0.314-0.352l-0.028,0.118
						c-0.602,0.491-0.253-0.005-0.447-0.062l0.059-0.054c0.089-0.687-0.312,0.069-0.166-0.671l-0.315,0.362
						c-0.738,0.722,0.161-0.689-0.281-0.567l-0.126,0.259c-0.333,0.169,0.701-1.272,0.693-1.459
						c0.041-0.085,0.131-0.073,0.205-0.095c0.167-0.684-0.461,0.429-0.744,0.359c0.196-0.281,0.63-0.59,0.548-0.756
						c0.121-0.261-1.101,0.46-0.838-0.174c-0.136,0.228-0.274,0.453-0.495,0.521c-0.198-0.048,0.292-1.053-0.382-0.548
						c0.03-0.067,0.069-0.124,0.112-0.173c-0.246,0.067-0.575-0.031-0.933,0.249c0.999-1.326-1.176,0.048-0.168-1.101l-0.375-0.216
						l0.11-0.111c-0.14-0.254-0.451-0.039-0.76,0.178c0.02-0.12,0.147-0.198,0.203-0.256c-0.1-0.494-0.174-0.472-0.913-0.104
						l0.292-0.403c-0.252,0.165,0.065-0.977-0.603-0.778c0.039-0.041,0.106-0.11,0.174-0.146c-0.709,0.184,0.033-1.718-1.223-0.408
						l-0.504,0.171c0.205,0.337-0.53,0.579-0.597,0.907c-0.179-0.005,0.043-0.656,0.241-0.619l-0.034,0.088
						c0.636-0.697-0.156-0.545,0.248-1.042c-0.605-0.413-0.854-1.267-1.375-1.724l-0.376,0.634l-0.163-0.181
						c0.052-0.175,0.275-0.511,0.393-0.381c0.177-0.388-0.435,0.102-0.533,0.227c-0.088-0.443,0.612-0.604,0.542-0.682l-0.144-0.042
						l-0.026,0.088c-0.268,0.17-0.463,0.417-0.61,0.271c-0.02-0.193,0.213-0.402,0.188-0.454c0.031-0.042,0.031-0.071-0.052-0.062
						l-0.211-0.225l-0.242,0.536c-0.277,0.152-0.214-0.188-0.486,0.421c0.427-0.933-0.706-0.939-0.625-1.266
						c-0.397,0.235-0.543,0.124-0.701-0.049c-0.022,0.131-0.368,0.682-0.482,0.505c0.826-1.058,0.039-0.684,0.457-1.568
						c-0.247,0.607-0.55-0.193-0.881,0.684c-0.073-0.184,0.276-0.42,0.352-0.752c-0.616,0.208-0.515-0.786-1.024-0.904
						c-0.104,0.143-0.184,0.41-0.416,0.572l0.269-0.87c-0.129,0.021-0.633,0.801-0.446,0.196c-0.06,0.138-0.151,0.344-0.236,0.356
						c-0.341-1.23-2.007-0.439-1.974-2.324c-0.068,0.36-0.159,0.342-0.25,0.3c0.012,0.104-0.229,0.369-0.343,0.579l0.004-0.78
						c-0.406,0.525-0.39-0.194-0.752,0.325l0.167-0.029c-0.528,0.549-0.659,1.546-1.179,2.351c0.6-0.625-0.246,1.332,0.646,0.459
						c-0.047,0.201-0.211,0.231-0.297,0.439c0.28-0.308,0.404-0.331,0.452-0.083l-0.07,0.076c0.46,0.173,0.42,0.627,0.729,1.142
						l0.222-0.421c0.064,0.116,0.004,0.254-0.014,0.383c0.5-0.533-0.253-0.209,0.276-0.811c-0.391,0.894,0.687,0.452,0.177,1.426
						c0.147,0.1,0.256-0.487,0.403-0.387l-0.123,0.273l0.248-0.295c0.064,0.115-0.09,0.456-0.224,0.668
						c-0.008-0.04-0.106,0.016-0.144,0.018C3.01,67,3.5,66.755,3.481,66.878l-0.043-0.243c0.569,0.021,0.821,0.704,1.55,0.471
						L5.085,66.9c0.529-0.134,0.097,0.368,0.529,0.438l-0.042,0.035c0.192-0.138,0.343-0.169,0.417-0.085
						c-0.232,0.156-0.139,0.524-0.412,0.686c0.574-0.139,0.357-0.175,1.049-0.704L6.46,67.607c0.266-0.223,0.375-0.363,0.594-0.326
						c-0.318,0.165-0.225,0.532-0.618,0.771c-0.135,0.896,0.982-0.311,0.442,0.759c0.759-0.721,0.041-0.667,0.257-0.784
						c0.123-0.323,0.579-0.53,0.626-0.371c0.097,0.096-0.587,1.191-0.305,1.366c-0.024-0.023-0.072,0.038-0.097,0.016
						c-0.054,0.282,0.411-0.147,0.28,0.286c0.437-0.446,0.134,0.149,0.626-0.47l-0.351-0.04c0.261-0.063,0.942-0.703,0.901-0.167
						c-0.113,0.114-0.306,0.229-0.422,0.288c-0.074,0.238,0.22-0.025,0.144,0.22c-0.495,0.619-0.396-0.091-0.902,0.281
						c-0.13,0.322,0.618-0.246,0.032,0.385c0.758-0.792,0.173,0.31,0.851-0.218l-0.298,0.37c0.073-0.038,0.267-0.172,0.311-0.122
						l-0.464,0.418c0.46-0.307-0.003,0.58,0.306,0.458c-0.294-0.211,0.283-0.504,0.371-0.874c0.742-0.228-0.549,1.146-0.018,1.271
						c-0.094,0.011-0.026-0.382,0.191-0.491c0.016,0.137,0.004,0.357-0.103,0.59c0.322,0.126,0.26-0.416,0.55-0.56
						c-0.266,0.525,0.274-0.085,0.504-0.141l-0.297,0.381c0.108,0.477,0.701-0.729,0.741-0.224l-0.529,0.436l0.248-0.025
						l-0.37,0.407c0.405-0.2,0.388-0.08,0.441,0.156c0.177-0.292,0.566-0.668,0.709-0.576c-0.088,0.295-0.338,0.318-0.106,0.411
						c-0.232,0.202-0.516,0.461-0.319,0.051c-0.107,0.116-0.231,0.204-0.337,0.318c-0.109,0.333,0.196,0.248,0.267,0.298
						c-0.015-0.034-0.03-0.079-0.002-0.145l0.693-0.308c-0.071,0.174-0.197,0.261-0.321,0.345c0.088,0.003,0.266-0.14,0.374-0.108
						c-0.269,0.287-0.52,0.604-0.75,0.659l0.533-0.137c-0.089,0.145-0.167,0.468-0.291,0.553c-0.012,0.296,0.819-0.296,0.807,0.096
						c0.058-0.051,0.124-0.09,0.198-0.1c0.115,0.217-0.045,0.714,0.505,0.479l-0.341,0.635c0.262,0.015,0.419-0.81,0.856-0.781
						c0.334-0.008-0.32,0.516-0.382,0.721c0.323-0.189,0.958-0.593,0.756-0.012C12.807,74.104,12.831,73.986,12.743,73.979z
						 M14.899,75.46c-0.105,0.04-0.388,0.201-0.222-0.034C15.092,75.058,14.945,75.284,14.899,75.46z M18.57,77.382
						c-0.141,0.086-0.126-0.01-0.045-0.185C18.588,77.203,18.614,77.253,18.57,77.382z M28.47,83.914
						c-0.008,0.003-0.013,0.005-0.022,0.009C28.53,83.716,28.495,83.794,28.47,83.914z M28.444,84.237
						c0.069-0.02,0.123-0.06,0.171-0.107c-0.109,0.058-0.148,0.018-0.158-0.055C28.365,84.163,28.313,84.24,28.444,84.237z
						 M9.718,65.872l-0.036,0.129C9.513,66.052,9.611,65.968,9.718,65.872z"/>
					<path fill="#C9C9C9" d="M17.775,77.533c0.047-0.067,0.108-0.134,0.17-0.2C17.874,77.377,17.807,77.442,17.775,77.533z"/>
					<polygon fill="#C9C9C9" points="11.362,73.119 11.359,73.11 11.297,73.172 					"/>
					<path fill="#C9C9C9" d="M22.948,83.742c0.024-0.08,0.076-0.156,0.136-0.227C22.99,83.588,22.926,83.667,22.948,83.742z"/>
					<path fill="#C9C9C9" d="M29.883,84.838l-0.196-0.059c0.064,0.049-0.006,0.131-0.047,0.206
						C29.73,84.919,29.848,84.802,29.883,84.838z"/>
					<path fill="#C9C9C9" d="M27.507,86.842c-0.052,0.037-0.043-0.02-0.096,0.019l-0.122,0.188
						C27.385,87.091,27.538,86.974,27.507,86.842z"/>
					<path fill="#C9C9C9" d="M28.645,85.861c-0.328,0.238-0.157,0.24-0.031,0.287c-0.005-0.005-0.012-0.008-0.012-0.016
						C29.091,85.841,28.867,85.851,28.645,85.861z"/>
					<path fill="#C9C9C9" d="M28.639,86.161c0.036,0.017,0.064,0.039,0.067,0.076C28.903,86.121,28.722,86.178,28.639,86.161z"/>
					<path fill="#C9C9C9" d="M28.846,84.337c-0.055,0.103,0.443-0.272,0.326-0.153C29.628,83.934,28.456,84.258,28.846,84.337z"/>
					<polygon fill="#C9C9C9" points="27.591,86.685 27.982,86.372 27.613,86.55 					"/>
					<path fill="#C9C9C9" d="M27.398,85.785l-0.014,0.22c0.068-0.05,0.121-0.061,0.167-0.06
						C27.503,85.849,27.517,85.697,27.398,85.785z"/>
					<path fill="#C9C9C9" d="M27.552,85.945c0.024,0.05,0.064,0.087,0.149,0.065C27.679,85.989,27.628,85.946,27.552,85.945z"/>
					<polygon fill="#C9C9C9" points="27.33,86.579 27.386,86.479 27.346,86.359 					"/>
					<path fill="#C9C9C9" d="M26.394,84.221l-0.225-0.067c-0.149,0.088-0.204,0.192-0.108,0.208
						C26.184,84.326,26.278,84.344,26.394,84.221z"/>
					<path fill="#C9C9C9" d="M25.618,85.492c0.055-0.102,0.143-0.17,0.26-0.291l-0.505,0.362L25.618,85.492z"/>
					<path fill="#C9C9C9" d="M25.188,85.141c-0.149,0.088-0.552,0.079-0.386,0.244C24.95,85.298,25.172,85.363,25.188,85.141z"/>
					<polygon fill="#C9C9C9" points="24.095,82.456 24.131,82.487 24.92,81.843 					"/>
					<path fill="#C9C9C9" d="M20.681,82.136c-0.049,0.325,0.508-0.371,0.4-0.022c0.215-0.117,0.088-0.285,0.278-0.381
						C21.084,81.798,21.15,81.651,20.681,82.136z"/>
					<path fill="#C9C9C9" d="M21.359,81.732c0.043-0.01,0.095-0.024,0.16-0.049C21.446,81.695,21.398,81.714,21.359,81.732z"/>
					<polygon fill="#C9C9C9" points="2.601,60.5 2.587,60.24 2.49,60.583 					"/>
					<path fill="#C9C9C9" d="M1.974,60.997l0.305-0.574L1.903,60.88C1.946,60.872,2.028,60.858,1.974,60.997z"/>
					<path fill="#C9C9C9" d="M14.287,76.686l0.114-0.106c0.1-0.139,0.085-0.171,0.057-0.234L14.287,76.686z"/>
					<polygon fill="#C9C9C9" points="13.233,75.077 13.249,75.108 13.593,74.63 					"/>
					<path fill="#C9C9C9" d="M11.559,74.619c0.032,0.061,0.174,0.01,0.206,0.07C11.591,74.68,12.022,74.053,11.559,74.619z"/>
				</g>
			</g>
		</g>
	</g>
</g>
<g>
	<g>
		<g>
			<g>
				<g>
					<path fill="#C9C9C9" d="M38.45,54.958c0.061,0.003-0.176-0.343-0.209-0.41C38.219,54.674,38.51,55.049,38.45,54.958z"/>
					<polygon fill="#C9C9C9" points="38.284,56.217 38.201,56.066 38.335,56.481 					"/>
					<path fill="#C9C9C9" d="M37.652,56.634c0.47,0.545,0.16-0.247,0.417-0.114l0.11,0.121l-0.273-0.508
						C37.819,56.301,37.861,56.732,37.652,56.634z"/>
					<path fill="#C9C9C9" d="M36.409,55.614c0.186,0.21,0.065,0.245,0.132,0.014c-0.024-0.021-0.038-0.032-0.056-0.047
						C36.474,55.594,36.453,55.605,36.409,55.614z"/>
					<path fill="#C9C9C9" d="M36.485,55.581C36.543,55.518,36.303,55.423,36.485,55.581L36.485,55.581z"/>
					<path fill="#C9C9C9" d="M36.273,55.941l-0.061-0.267c-0.116-0.117-0.216-0.087-0.258-0.205
						C35.944,55.649,36.062,55.765,36.273,55.941z"/>
					<path fill="#C9C9C9" d="M36.503,56.423l-0.019-0.119C36.436,56.255,36.409,56.245,36.503,56.423z"/>
					<path fill="#C9C9C9" d="M36.446,56.053l0.039,0.251c0.081,0.083,0.22,0.268-0.005-0.098
						C36.598,56.382,36.495,56.205,36.446,56.053z"/>
					<path fill="#C9C9C9" d="M36.564,56.1c0.14,0.087,0.259,0.119,0.32,0.384C36.987,56.279,36.669,55.891,36.564,56.1z"/>
					<path fill="#C9C9C9" d="M38.047,57.258l0.184,0.128l-0.083-0.232C38.189,57.269,37.914,57.078,38.047,57.258z"/>
					<path fill="#C9C9C9" d="M35.508,56.068c0.088,0.124,0.277,0.297,0.403,0.446l-0.043-0.188
						C35.771,56.27,35.65,56.243,35.508,56.068z"/>
					<path fill="#C9C9C9" d="M35.911,56.515l0.066,0.278C36.079,56.752,36.019,56.643,35.911,56.515z"/>
					<polygon fill="#C9C9C9" points="36.963,57.068 36.788,56.511 36.938,57.097 					"/>
					<polygon fill="#C9C9C9" points="35.127,56.342 34.963,56.023 35.197,56.515 					"/>
					<path fill="#C9C9C9" d="M34.922,56.58c-0.144-0.257-0.368-0.337-0.438-0.51c-0.035,0.093,0.067,0.331,0.16,0.544
						C34.618,56.476,34.697,56.454,34.922,56.58z"/>
					<path fill="#C9C9C9" d="M34.77,56.936c-0.02-0.076-0.073-0.195-0.126-0.321C34.657,56.688,34.691,56.786,34.77,56.936z"/>
					<path fill="#C9C9C9" d="M35.77,56.859c-0.064-0.066-0.228-0.244-0.344-0.281l0.303,0.305L35.77,56.859z"/>
					<path fill="#C9C9C9" d="M35.739,56.893l-0.01-0.01c-0.047,0.022-0.081,0.037-0.095,0.044
						C35.647,56.923,35.678,56.913,35.739,56.893z"/>
					<path fill="#C9C9C9" d="M35.78,56.854l-0.01,0.006C35.8,56.89,35.811,56.899,35.78,56.854z"/>
					<path fill="#C9C9C9" d="M36.488,56.948c0.09,0.232,0.136,0.521,0.466,0.727C36.814,57.413,36.625,57.297,36.488,56.948z"/>
					<path fill="#C9C9C9" d="M36.157,57.237h0.158c-0.071-0.087-0.19-0.203-0.236-0.317L36.157,57.237z"/>
					<polygon fill="#C9C9C9" points="36.193,57.381 36.157,57.237 36.098,57.237 					"/>
					<path fill="#C9C9C9" d="M35.196,57.105c0.075,0.178,0.038,0.226,0.005,0.292c0.109,0.019,0.198,0.008,0.252-0.036
						C35.375,57.251,35.248,57.046,35.196,57.105z"/>
					<path fill="#C9C9C9" d="M35.484,57.031l0.006,0.026C35.518,57.081,35.53,57.086,35.484,57.031z"/>
					<path fill="#C9C9C9" d="M34.704,57.831c0.018,0.016,0.04,0.035,0.059,0.052l-0.046-0.058L34.704,57.831z"/>
					<path fill="#C9C9C9" d="M35.513,57.415c0.095,0.03,0.054-0.07-0.005-0.191c-0.005,0.059-0.021,0.106-0.055,0.138
						C35.488,57.411,35.513,57.442,35.513,57.415z"/>
					<path fill="#C9C9C9" d="M34.758,57.212c0.079,0.049,0.152,0.086,0.222,0.117C34.873,57.243,34.694,57.12,34.758,57.212z"/>
					<path fill="#C9C9C9" d="M35.401,56.977l-0.006-0.02C35.323,56.896,35.353,56.931,35.401,56.977z"/>
					<path fill="#C9C9C9" d="M35.401,56.977c0.017,0.065,0.065,0.161,0.107,0.247c0.004-0.046,0-0.101-0.019-0.166
						C35.467,57.036,35.432,57.005,35.401,56.977z"/>
					<path fill="#C9C9C9" d="M36.363,60.026c-0.255-0.304-0.395-0.668-0.032-0.423c-0.11-0.299-1.012-1.24-1.568-1.721
						c0.11,0.133,0.214,0.254,0.277,0.512c0.175,0.134,0.532,0.204,0.69,0.543c0.016,0.258-0.188-0.021-0.384-0.128
						c0.373,0.329,0.324,0.673,0.831,1.193l-0.069-0.28C36.185,59.806,36.268,59.973,36.363,60.026z"/>
					<path fill="#C9C9C9" d="M34.966,57.758l0.006-0.071c-0.088-0.014-0.222-0.107-0.482-0.291c0.062,0.204,0.145,0.326,0.227,0.43
						l0.224-0.124L34.966,57.758z"/>
					<path fill="#C9C9C9" d="M35.143,57.534c0.247,0.356,0.276,0.575,0.632,0.883c0.089-0.118-0.156-0.343-0.209-0.544
						c-0.11,0.239-0.103-0.229-0.389-0.303c-0.012-0.087,0.006-0.133,0.025-0.173c-0.066-0.012-0.14-0.034-0.221-0.068l0.021,0.017
						v-0.002l0.004,0.006c0.042,0.034,0.066,0.057,0.037,0.041c0.003,0.004,0.002,0.008,0.002,0.01
						c0.036,0.049,0.066,0.091,0.097,0.132c-0.11-0.021-0.081-0.078-0.097-0.132l-0.039-0.051l-0.004-0.004l-0.03,0.341
						C35.049,57.698,35.089,57.646,35.143,57.534z"/>
					<path fill="#C9C9C9" d="M37.424,58.483c-0.029-0.025-0.047-0.051-0.067-0.075C37.377,58.459,37.396,58.491,37.424,58.483z"/>
					<path fill="#C9C9C9" d="M37.19,58.336c-0.024-0.058-0.119-0.202-0.049-0.201c0.117,0.073,0.126,0.164,0.215,0.273
						c-0.045-0.109-0.099-0.314-0.309-0.416l0.023,0.056c-0.163-0.06-0.591-0.408-0.615-0.464
						C36.718,57.871,36.908,58.073,37.19,58.336z"/>
					<path fill="#C9C9C9" d="M36.24,58.011l-0.02,0.283l0.314,0.229l-0.146-0.171C36.531,58.353,36.338,58.152,36.24,58.011z"/>
					<polygon fill="#C9C9C9" points="34.546,57.685 34.268,57.323 34.602,57.886 					"/>
					<polygon fill="#C9C9C9" points="34.385,57.9 34.13,57.597 34.236,57.822 					"/>
					<path fill="#C9C9C9" d="M29.139,71.68l0.06,0.109C29.186,71.748,29.165,71.713,29.139,71.68z"/>
					<path fill="#C9C9C9" d="M29.392,71.373l-0.153-0.121C29.315,71.329,29.375,71.382,29.392,71.373z"/>
					<path fill="#C9C9C9" d="M30.002,62.508c-0.337-0.174-0.839-0.469-0.491-0.191l0.35,0.259
						C29.839,62.48,29.906,62.477,30.002,62.508z"/>
					<path fill="#C9C9C9" d="M29.448,67.39c0.038,0.02,0.08,0.04,0.12,0.061c-0.107-0.104-0.207-0.201-0.299-0.292
						C29.325,67.23,29.385,67.309,29.448,67.39z"/>
					<path fill="#C9C9C9" d="M30.853,68.51l-0.287-0.085C30.658,68.465,30.753,68.494,30.853,68.51z"/>
					<path fill="#C9C9C9" d="M28.249,73.72l0.323,0.309C28.627,73.945,28.42,73.852,28.249,73.72z"/>
					<path fill="#C9C9C9" d="M32.552,59.854c-0.174-0.066-0.267-0.074-0.319-0.053C32.476,59.912,32.793,60.124,32.552,59.854z"/>
					<path fill="#C9C9C9" d="M25.487,68.872c0.044,0.073,0.107,0.137,0.187,0.191C25.634,68.992,25.578,68.928,25.487,68.872z"/>
					<path fill="#C9C9C9" d="M32.083,59.955c0.042,0.018,0.064,0.027,0.101,0.042c-0.014-0.088-0.017-0.168,0.05-0.195
						C32.054,59.72,31.916,59.693,32.083,59.955z"/>
					<path fill="#C9C9C9" d="M23.143,79.96c-0.02-0.007-0.03-0.01-0.052-0.018C23.135,79.98,23.143,79.976,23.143,79.96z"/>
					<path fill="#C9C9C9" d="M18.298,78.944c-0.006-0.034,0.017-0.062,0.034-0.092C18.299,78.847,18.284,78.869,18.298,78.944z"/>
					<path fill="#C9C9C9" d="M33.463,58.465C33.485,58.407,33.436,58.424,33.463,58.465L33.463,58.465z"/>
					<path fill="#C9C9C9" d="M34.831,59.544c0.024,0.044,0.06,0.095,0.127,0.17C34.89,59.634,34.851,59.58,34.831,59.544z"/>
					<path fill="#C9C9C9" d="M33.681,62.205l-0.004,0.002C33.75,62.254,33.736,62.245,33.681,62.205z"/>
					<path fill="#C9C9C9" d="M33.66,58.553c-0.052-0.024-0.101-0.041-0.142-0.046C33.55,58.523,33.595,58.539,33.66,58.553z"/>
					<path fill="#C9C9C9" d="M33.512,58.411c0.028-0.001,0.046-0.002,0.065-0.002C33.533,58.352,33.497,58.322,33.512,58.411z"/>
					<path fill="#C9C9C9" d="M33.423,58.537c0.019-0.027,0.053-0.034,0.095-0.03c-0.028-0.015-0.048-0.029-0.056-0.042
						C33.456,58.481,33.445,58.504,33.423,58.537z"/>
					<path fill="#C9C9C9" d="M24.849,75.827c-0.013-0.005-0.022-0.009-0.04-0.016C24.922,75.961,24.913,75.926,24.849,75.827z"/>
					<polygon fill="#C9C9C9" points="32.626,66.412 32.613,66.395 32.597,66.391 					"/>
					<path fill="#C9C9C9" d="M32.766,66.755c-0.374-0.397-0.294-0.391-0.169-0.364l-1.013-0.735L32.766,66.755z"/>
					<path fill="#C9C9C9" d="M28.688,72.526l0.393,0.119c0.431,0.501,0.185,0.466,0.702,0.685c-1.095-0.805,0.181-0.494-0.914-1.295
						l0.282,0.097c-0.025,0.012,0.038,0.062,0.013,0.073c0.626,0.243-0.728-0.671-0.445-0.732c0.128-0.001,0.319,0.072,0.42,0.207
						l-0.176-0.331c0.049-0.023,0.234,0.123,0.185,0.147l0.06-0.27l0.031,0.025c-0.152-0.154-0.372-0.413-0.462-0.527
						c0.196,0.062,0.098,0.11,0.245,0.196l-0.186-0.307c0.319,0.159,0.529,0.453,0.432,0.502c1.177,0.685-0.21-0.294,0.598-0.062
						l0.063,0.208c0.675,0.381,0.508,0.134,0.985,0.294c-0.224-0.118-1.157-0.465-1.342-0.786c0.108,0.025,0.181,0.008,0.007-0.219
						c0.392,0.282,0.342,0.146,0.379,0.05l0.514,0.38c-0.086-0.194-0.355-0.379-0.551-0.599c0.122-0.06,0.538,0.211,0.892,0.434
						c0.195-0.095-0.721-0.359-0.685-0.613c0.292,0.015,0.146-0.229-0.049-0.61c0.244,0.04,0.304,0.247,0.476,0.322l-0.353-0.381
						c0.024-0.013,0.146,0.086,0.208,0.137c-0.11-0.185-0.512-0.384-0.574-0.593c-0.546-0.447,0.989,0.392,0.441-0.215
						c0.17,0.075,0.304,0.249,0.51,0.386c-0.29-0.492-0.194-0.382-0.652-0.95l0.431,0.126c-0.455-0.195-0.822-0.651-1.117-1.035
						c-0.212-0.104-0.397-0.194-0.486-0.238l-0.149-0.372c0.1,0.043,0.262,0.191,0.456,0.379c-0.035-0.042-0.068-0.084-0.1-0.122
						c0.234,0.082,0.506,0.335,0.76,0.591c-0.115-0.057-0.239-0.117-0.361-0.177c0.28,0.273,0.596,0.569,0.903,0.785
						c-0.051-0.055-0.086-0.113-0.098-0.157c0.077,0.073,0.147,0.137,0.202,0.17c0.059,0.035-0.042-0.066-0.152-0.191l0.599,0.391
						l-0.22-0.179l0.518,0.056c-0.458-0.584-1.199-1.356-1.246-1.782c0.369,0.379,0.668,0.532,1.158,0.912
						c-0.571-0.332,0.079,0.357-0.121,0.401c0.104-0.023,0.329,0.17,0.398,0.248l-0.306-0.584c0.399,0.312,0.338,0.183,0.548,0.252
						c-0.828-0.564-0.403-0.572-0.577-0.852c0.271,0.2,0.526,0.432,0.378,0.493c0.689,0.339-0.812-0.879-0.212-0.605
						c-0.015,0.032-0.067,0.015,0.06,0.13c-0.187-0.245,0.121-0.252,0.323-0.036l-0.016,0.03c0.233-0.102,0.43-0.528-0.213-1.085
						c0.083,0.071,0.779,0.667,0.91,0.779l-1.981-2.106c0.547,0.485,1.986,1.471,2.192,1.875c0.114,0.023,0.25,0.049,0.119-0.201
						c-0.104-0.037-0.878-0.592-0.899-0.674c0.718,0.404,0.398,0.198,1.041,0.504c-0.155-0.056-1.006-0.826-0.923-0.872
						c0.125,0.119,0.88,0.71,0.953,0.81l-0.735-0.88c0.122,0.17,0.731,0.611,1.007,0.778c-0.184-0.124,0.134-0.127,0.085-0.24
						l-0.259-0.099c0.286-0.073-1.061-1.193-0.855-1.344c0.158,0.173,1.047,0.977,1.233,0.976c-0.406-0.413-1.952-1.982-2.141-2.444
						l0.277,0.182l-0.172-0.376c0.583,0.652,1.778,2.062,2.221,2.637c0.256,0.101,0.312,0.232,0.375,0.112
						c0.265,0.164,0.309,0.358,0.298,0.399l0.35-0.104c-0.519-0.429-0.357-0.621-0.788-0.979l0.309,0.713
						c-0.52-0.425-1.319-1.394-1.082-1.491c0.239,0.133,0.875,0.819,1.047,0.963c-0.156-0.174-0.197-0.451-0.06-0.358l0.209,0.309
						c0.268,0.073-0.539-0.744,0.042-0.426c0.067-0.009,0.748,0.466,0.457,0.194c-0.626-0.452-2.411-2.017-2.8-2.444
						c0.052,0.02,0.739,0.279,1.06,0.49c0.503,0.341,0.975,1.059,1.407,1.352c-0.134-0.126-0.27-0.312-0.311-0.376
						c0.152,0.066,0.406,0.399,0.423,0.258c-0.49-0.474,0.204-0.136-0.388-0.43c-0.065-0.217,0.187,0.005,0.256-0.114
						c-0.353-0.267-1.016-1.109-1.076-1.332c0.122,0.124,0.304,0.258,0.388,0.319c0.21-0.136,0.519-0.02,0.678-0.177
						c0.134,0.101,0.353,0.164,0.531,0.4c-0.064-0.105-0.209-0.287-0.172-0.347c0.515,0.319-0.042,0.17,0.536,0.594
						c-0.278-0.282-0.267-0.504-0.374-0.746c-0.457-0.409-0.245,0.077-0.136,0.316c-0.606-0.587-1.116-1.325-1.218-1.773
						c-0.01-0.284,0.446,0.326,0.385,0.218c0.358-0.146-0.814-1.268-0.169-1.048c0.459,0.302,0.747,0.766,1.036,1.025
						c0.033,0.254-0.406-0.078-0.467,0.012l0.27,0.091c0.09,0.162,0.113,0.331-0.037,0.259c0.408,0.276,0.491-0.354,0.99-0.221
						c-0.09-0.165-0.157-0.359-0.333-0.489l-0.01,0.115c-0.355-0.259-0.293-0.553-0.511-0.622c-0.124-0.304-0.345-0.743-0.052-0.677
						l0.438,0.432c-0.124-0.131-0.329-0.196-0.238-0.028c-0.13-0.247,0.751,0.443,0.269-0.201l-0.374-0.236
						c-0.118-0.307-0.438-0.894-0.192-0.852c-0.456-0.405,0.02,0.074-0.535-0.38c0.66,0.593-0.323,0.236,0.414,0.821
						c-0.638-0.533-0.38-0.129-0.967-0.545c0.141,0.145,0.302,0.248,0.137,0.263c0.033,0.049,0.075,0.112,0.1,0.149l-0.017-0.006
						l0.021,0.013c0.017,0.026,0.021,0.031,0.008,0.005c0.083,0.044,0.175,0.105,0.259,0.181c0.266,0.381,0.109,0.51,0.228,0.732
						c-0.12-0.017-0.137-0.19-0.314-0.318l0.175,0.333c-0.316-0.319-0.66-0.397-0.712-0.715l-0.13,0.1
						c-0.243-0.114-0.408-0.092-0.334,0.102c-0.124-0.015,0.21,0.491,0.011,0.193l0.015,0.377l-0.081-0.078
						c-0.222,0.14,0.165,0.883-0.621,0.521c0.023,0.141,0.066,0.3-0.122,0.314l-0.3-0.247c0.025,0.173-0.504-0.026-0.241,0.285
						c-0.845-0.626-0.527,0.235-0.792,0.25l0.371,0.346c-0.11,0.077-0.088,0.267-0.045,0.521l0.342,0.29
						c0.18,0.344-0.472,0.054-0.58,0.251c-0.12-0.124-0.05-0.137,0.053-0.099c-0.935-0.463,0.204,0.898-0.508,0.597
						c0.086,0.15,0.016,0.146-0.097,0.105c0.003-0.005,0-0.014-0.008-0.026c-0.008,0.001-0.015,0.008-0.02,0.015
						c-0.076-0.029-0.164-0.063-0.236-0.091c0.099,0.051,0.183,0.091,0.229,0.103c-0.022,0.04-0.024,0.129,0.018,0.252l-0.388-0.287
						c0.001,0.008-0.002,0.011,0,0.021c-0.18-0.063,0.141,0.187,0.441,0.392c0.039,0.077,0.092,0.161,0.166,0.254
						c-0.633-0.456,0.088,0.3-0.598-0.172c0.28,0.29,0.021,0.452,0.66,1.018c-0.087-0.068-0.141-0.087-0.124-0.118
						c-0.121-0.005-0.242-0.008-0.097,0.194l-0.495-0.36l0.54,0.643c-0.351-0.158-0.545-0.262-0.852-0.633
						c0.418,0.638,0.094,0.32,0.532,0.924l-0.304-0.255c-0.033,0.066,0.312,0.483,0.029,0.314c-0.69-0.341-0.574,0.549-1.369,0.449
						c0.973,0.646-0.529-0.166,0.179,0.396c-0.233-0.148-0.392-0.196-0.542-0.395c0.09,0.33-0.538-0.014-0.018,0.561
						c-0.236-0.147-0.296-0.279-0.439-0.36c0.037,0.049,0.151,0.197,0.006,0.115c-0.144-0.081-0.166-0.163-0.242-0.263
						c-0.093,0.2,0.574,0.728,1.202,1.218c-0.366-0.141-0.356-0.065,0.016,0.309c-0.231-0.126-0.488-0.239-0.483-0.4
						c-0.076,0.035-0.581,0.133-0.069,0.521C27.857,66.867,27.902,67,27.95,67.06c-0.128,0.11-0.183,0.088-0.229,0.255l0.11,0.025
						c0.583,0.509,0.059,0.21,0.057,0.37l-0.062-0.05c-0.625-0.087,0.139,0.262-0.548,0.126l0.397,0.27
						c0.818,0.63-0.646-0.147-0.428,0.224l0.258,0.11c0.231,0.282-1.291-0.611-1.451-0.61c-0.085-0.035-0.098-0.11-0.134-0.173
						c-0.639-0.155,0.49,0.395,0.501,0.629c-0.294-0.171-0.674-0.54-0.797-0.477c-0.258-0.11,0.685,0.934,0.059,0.69
						c0.234,0.123,0.467,0.245,0.577,0.429c0,0.16-1.007-0.289-0.407,0.286c-0.068-0.028-0.127-0.062-0.18-0.101
						c0.115,0.205,0.099,0.469,0.427,0.777c-1.403-0.888,0.296,0.97-0.946,0.08l-0.11,0.296l-0.123-0.098
						c-0.195,0.1,0.063,0.369,0.322,0.637c-0.111-0.023-0.208-0.133-0.271-0.183c-0.416,0.053-0.379,0.113,0.102,0.75l-0.417-0.268
						c0.197,0.22-0.871-0.116-0.562,0.444c-0.044-0.034-0.119-0.095-0.163-0.153c0.291,0.592-1.552-0.197-0.152,0.949l0.241,0.427
						c0.27-0.135,0.612,0.49,0.92,0.576c0.024,0.147-0.601-0.098-0.601-0.257l0.085,0.037c-0.736-0.589-0.464,0.074-0.979-0.307
						c-0.267,0.455-0.991,0.554-1.311,0.923l0.623,0.389l-0.135,0.112c-0.164-0.065-0.496-0.292-0.4-0.371
						c-0.372-0.195,0.159,0.37,0.285,0.468c-0.379,0.015-0.631-0.582-0.688-0.533l-0.014,0.111l0.082,0.033
						c0.193,0.242,0.443,0.437,0.328,0.532c-0.172-0.013-0.39-0.23-0.435-0.218c-0.041-0.031-0.068-0.036-0.05,0.032l-0.177,0.135
						l0.514,0.276c0.172,0.246-0.144,0.145,0.439,0.456c-0.895-0.486-0.773,0.418-1.077,0.301c0.255,0.36,0.169,0.461,0.03,0.56
						c0.12,0.041,0.65,0.416,0.501,0.48c-1.032-0.856-0.617-0.149-1.449-0.648c0.567,0.311-0.115,0.412,0.698,0.843
						c-0.157,0.026-0.4-0.302-0.703-0.425c0.237,0.536-0.645,0.266-0.718,0.64c0.134,0.113,0.38,0.236,0.54,0.457l-0.799-0.408
						c0.025,0.106,0.753,0.684,0.2,0.397c0.126,0.079,0.316,0.198,0.332,0.27c-1.073-0.016-0.333,1.513-1.998,0.987
						c0.318,0.152,0.305,0.22,0.269,0.281c0.091,0.019,0.33,0.283,0.517,0.432l-0.686-0.215c0.467,0.472-0.162,0.261,0.296,0.698
						l-0.027-0.144c0.485,0.583,1.362,0.959,2.076,1.598c-0.554-0.659,1.193,0.537,0.418-0.429c0.182,0.088,0.207,0.233,0.394,0.356
						c-0.275-0.311-0.295-0.419-0.07-0.399l0.068,0.076c0.161-0.344,0.572-0.203,1.049-0.35l-0.386-0.277
						c0.107-0.027,0.231,0.051,0.35,0.095c-0.491-0.534-0.188,0.167-0.742-0.408c0.821,0.521,0.399-0.474,1.3,0.153
						c0.09-0.103-0.452-0.313-0.362-0.415l0.253,0.157l-0.276-0.267c0.104-0.029,0.421,0.167,0.62,0.321
						c-0.037-0.001,0.016,0.093,0.019,0.124c0.345,0.127,0.112-0.331,0.226-0.291l-0.225-0.012c0.014-0.464,0.608-0.578,0.352-1.231
						l-0.193-0.115c-0.163-0.47,0.326-0.023,0.356-0.378l0.036,0.041c-0.141-0.184-0.181-0.315-0.112-0.364
						c0.162,0.219,0.49,0.196,0.66,0.451c-0.173-0.506-0.188-0.329-0.731-0.986l0.322,0.188c-0.227-0.256-0.365-0.366-0.352-0.542
						c0.18,0.288,0.508,0.265,0.761,0.627c0.838,0.238-0.373-0.861,0.663-0.265c-0.735-0.729-0.62-0.126-0.747-0.321
						c-0.309-0.148-0.542-0.554-0.401-0.569c0.078-0.065,1.153,0.649,1.286,0.436c-0.019,0.017,0.042,0.064,0.024,0.082
						c0.266,0.08-0.176-0.359,0.234-0.199c-0.46-0.421,0.118-0.1-0.508-0.584l0.012,0.293c-0.089-0.229-0.763-0.876-0.275-0.781
						c0.119,0.108,0.25,0.284,0.319,0.389c0.225,0.088-0.054-0.188,0.178-0.099c0.627,0.484-0.026,0.326,0.376,0.798
						c0.309,0.145-0.305-0.554,0.344,0.013c-0.818-0.729,0.258-0.119-0.312-0.749l0.376,0.29c-0.044-0.066-0.192-0.243-0.153-0.276
						l0.443,0.437c-0.342-0.422,0.528,0.056,0.376-0.22c-0.153,0.232-0.499-0.287-0.848-0.396c-0.312-0.648,1.119,0.573,1.162,0.13
						c0.024,0.081-0.346-0.011-0.476-0.205c0.123-0.001,0.325,0.028,0.553,0.138c0.067-0.262-0.418-0.255-0.592-0.513
						c0.519,0.27-0.119-0.238-0.204-0.436l0.391,0.281c0.418-0.052-0.771-0.65-0.317-0.641l0.479,0.48l-0.062-0.211l0.429,0.344
						c-0.245-0.357-0.133-0.332,0.076-0.359c-0.295-0.171-0.7-0.526-0.638-0.638c0.283,0.097,0.344,0.307,0.393,0.121
						c0.222,0.209,0.503,0.466,0.097,0.271c0.117,0.104,0.228,0.203,0.344,0.307c0.322,0.116,0.198-0.147,0.232-0.202
						c-0.029,0.01-0.068,0.019-0.133-0.009l-0.391-0.602c0.171,0.072,0.271,0.184,0.368,0.293c-0.012-0.074-0.17-0.232-0.159-0.319
						c0.308,0.244,0.64,0.476,0.725,0.673l-0.208-0.455c0.148,0.085,0.456,0.168,0.555,0.278c0.268,0.022-0.424-0.716-0.071-0.687
						c-0.057-0.052-0.105-0.109-0.128-0.174c0.171-0.087,0.651,0.069,0.33-0.408l0.639,0.315c-0.038-0.222-0.811-0.388-0.874-0.757
						c-0.075-0.281,0.528,0.292,0.726,0.352c-0.235-0.281-0.729-0.831-0.163-0.639C28.786,72.477,28.675,72.453,28.688,72.526z
						 M29.562,70.769c0.061,0.09,0.271,0.333,0.023,0.188C29.162,70.6,29.396,70.728,29.562,70.769z M30.362,67.719
						c0.11,0.118,0.021,0.105-0.154,0.034C30.198,67.701,30.237,67.68,30.362,67.719z M33.302,59.175l0.013,0.021
						C33.12,59.123,33.194,59.154,33.302,59.175z M33.579,59.195c-0.033-0.062-0.081-0.109-0.133-0.152
						c0.075,0.098,0.051,0.133-0.006,0.142C33.537,59.267,33.614,59.312,33.579,59.195z M21.912,74.34l0.121,0.048
						C22.1,74.532,22.012,74.44,21.912,74.34z"/>
					<path fill="#C9C9C9" d="M30.69,68.379c-0.072-0.04-0.146-0.092-0.22-0.144C30.527,68.295,30.602,68.352,30.69,68.379z"/>
					<polygon fill="#C9C9C9" points="28.189,73.662 28.182,73.664 28.249,73.72 					"/>
					<path fill="#C9C9C9" d="M34.618,63.998c-0.074-0.021-0.153-0.066-0.229-0.118C34.475,63.96,34.559,64.016,34.618,63.998z"/>
					<path fill="#C9C9C9" d="M33.75,57.918l-0.007,0.174c0.028-0.057,0.115,0.007,0.188,0.044
						C33.854,58.055,33.728,57.949,33.75,57.918z"/>
					<path fill="#C9C9C9" d="M36.484,59.485c-0.026-0.056,0.021-0.027-0.005-0.084l-0.149-0.168
						C36.287,59.291,36.368,59.461,36.484,59.485z"/>
					<path fill="#C9C9C9" d="M34.908,59.034c0.279,0.295,0.241,0.145,0.251,0.034c-0.002,0.005-0.003,0.01-0.011,0.01
						C34.789,58.639,34.848,58.837,34.908,59.034z"/>
					<path fill="#C9C9C9" d="M35.165,59.046c0.006-0.031,0.018-0.056,0.049-0.058C35.071,58.812,35.16,58.974,35.165,59.046z"/>
					<path fill="#C9C9C9" d="M33.562,58.835c0.1,0.049-0.338-0.394-0.209-0.29C33.029,58.139,33.593,59.186,33.562,58.835z"/>
					<polygon fill="#C9C9C9" points="35.851,59.984 35.495,59.631 35.732,59.961 					"/>
					<path fill="#C9C9C9" d="M35.136,60.127l0.189,0.018c-0.058-0.061-0.08-0.107-0.09-0.148
						C35.165,60.036,35.032,60.021,35.136,60.127z"/>
					<path fill="#C9C9C9" d="M35.234,59.996c0.037-0.02,0.059-0.053,0.021-0.129C35.242,59.886,35.217,59.93,35.234,59.996z"/>
					<polygon fill="#C9C9C9" points="35.823,60.21 35.726,60.157 35.634,60.188 					"/>
					<path fill="#C9C9C9" d="M34.095,61.014l0.003,0.198c0.113,0.131,0.214,0.178,0.202,0.094
						C34.238,61.198,34.228,61.115,34.095,61.014z"/>
					<path fill="#C9C9C9" d="M35.355,61.697c-0.099-0.049-0.179-0.127-0.31-0.229l0.434,0.444L35.355,61.697z"/>
					<path fill="#C9C9C9" d="M35.181,62.073c0.112,0.131,0.215,0.482,0.306,0.338C35.375,62.282,35.368,62.087,35.181,62.073z"/>
					<polygon fill="#C9C9C9" points="33.215,63.007 33.232,62.977 32.473,62.299 					"/>
					<path fill="#C9C9C9" d="M33.9,65.938c0.287,0.04-0.458-0.432-0.134-0.342c-0.161-0.184-0.265-0.072-0.4-0.235
						C33.5,65.596,33.358,65.541,33.9,65.938z"/>
					<path fill="#C9C9C9" d="M33.367,65.36c-0.021-0.037-0.048-0.081-0.087-0.136C33.311,65.286,33.339,65.327,33.367,65.36z"/>
					<polygon fill="#C9C9C9" points="17.646,78.87 17.42,78.808 17.72,78.982 					"/>
					<path fill="#C9C9C9" d="M18.09,79.514l-0.504-0.408l0.403,0.433C17.982,79.502,17.968,79.431,18.09,79.514z"/>
					<path fill="#C9C9C9" d="M30.791,71.3l-0.123-0.098c-0.146-0.086-0.17-0.074-0.22-0.05L30.791,71.3z"/>
					<polygon fill="#C9C9C9" points="29.58,72.155 29.604,72.144 29.101,71.839 					"/>
					<path fill="#C9C9C9" d="M29.501,73.553c0.048-0.024-0.025-0.147,0.023-0.173C29.549,73.528,28.898,73.139,29.501,73.553z"/>
				</g>
			</g>
		</g>
	</g>
</g>
</svg>
