<?xml version="1.0" encoding="utf-8"?>

<!-- License Agreement at http://iconmonstr.com/license/ -->

<!DOCTYPE svg PUBLIC "-//W3C//DTD SVG 1.1//EN" "http://www.w3.org/Graphics/SVG/1.1/DTD/svg11.dtd">
<svg version="1.1" xmlns="http://www.w3.org/2000/svg" xmlns:xlink="http://www.w3.org/1999/xlink" x="0px" y="0px"
	 width="512px" height="512px" viewBox="0 0 512 512" style="enable-background:new 0 0 512 512;" xml:space="preserve">
<path id="certificate-1" d="M459.82,218.398c1.492-4.309,2.18-8.734,2.18-13.102c0-13.219-6.521-25.985-18.105-34.015
	c-36.966-25.607-32.07-19.17-45.985-60.829c-5.834-17.384-22.647-29.137-41.608-29.137c-0.033,0-0.084,0-0.117,0
	c-45.549,0.16-37.652,2.599-74.401-23.235C274.105,52.69,265.053,50,256,50s-18.105,2.69-25.783,8.08
	c-37.016,26.019-28.936,23.395-74.4,23.235c-0.051,0-0.084,0-0.117,0c-18.961,0-35.775,11.752-41.575,29.137
	c-13.948,41.743-9.171,35.281-45.985,60.829C56.521,179.328,50,192.086,50,205.321c0,4.359,0.721,8.768,2.179,13.077
	c14.267,41.684,14.233,33.679,0,75.187C50.721,297.911,50,302.304,50,306.661c0,13.229,6.521,26.002,18.139,34.049
	c36.831,25.583,32.07,19.112,45.985,60.838c5.8,17.368,22.614,29.136,41.575,29.136c0.033,0,0.084,0,0.117,0
	c45.549-0.168,37.653-2.615,74.4,23.219C237.895,459.284,246.947,462,256,462s18.105-2.716,25.782-8.098
	c36.749-25.834,28.819-23.387,74.401-23.219c0.051,0,0.084,0,0.117,0c18.961,0,35.774-11.768,41.608-29.136
	c13.915-41.676,9.02-35.238,45.985-60.838C455.479,332.68,462,319.905,462,306.695c0-4.376-0.688-8.784-2.18-13.11
	C445.554,251.909,445.621,259.898,459.82,218.398z M230.25,337.541L153,262.622l31.902-31.886l45.348,43l96.848-99.27L359,206.353
	L230.25,337.541z"/>
</svg>
