<?xml version="1.0" encoding="utf-8"?>
<!-- Generator: Adobe Illustrator 16.0.0, SVG Export Plug-In . SVG Version: 6.00 Build 0)  -->
<!DOCTYPE svg PUBLIC "-//W3C//DTD SVG 1.1//EN" "http://www.w3.org/Graphics/SVG/1.1/DTD/svg11.dtd">
<svg version="1.1" id="Layer_1" xmlns="http://www.w3.org/2000/svg" xmlns:xlink="http://www.w3.org/1999/xlink" x="0px" y="0px"
	 width="33px" height="34px" viewBox="0 0 33 34" enable-background="new 0 0 33 34" xml:space="preserve">
<g>
	<path fill="#FFFFFF" d="M31.837,23.312v5.734c0,1.814-1.476,3.29-3.29,3.29h-5.734v0.822h5.734c2.262,0,4.112-1.851,4.112-4.112
		v-5.734H31.837z"/>
	<path fill="#FFFFFF" d="M22.812,1.663h5.734c1.814,0,3.29,1.476,3.29,3.29v5.735h0.822V4.953c0-2.262-1.851-4.112-4.112-4.112
		h-5.734V1.663z"/>
	<path fill="#FFFFFF" d="M1.164,10.688V4.953c0-1.814,1.476-3.29,3.29-3.29h5.734V0.841H4.453c-2.262,0-4.112,1.85-4.112,4.112
		v5.735H1.164z"/>
	<path fill="#FFFFFF" d="M10.188,32.336H4.453c-1.814,0-3.29-1.476-3.29-3.29v-5.734H0.341v5.734c0,2.261,1.851,4.112,4.112,4.112
		h5.734V32.336z"/>
</g>
<g>
</g>
<g>
</g>
<g>
</g>
<g>
</g>
<g>
</g>
<g>
</g>
</svg>
