<?xml version="1.0" encoding="utf-8"?>

<!-- License Agreement at http://iconmonstr.com/license/ -->

<!DOCTYPE svg PUBLIC "-//W3C//DTD SVG 1.1//EN" "http://www.w3.org/Graphics/SVG/1.1/DTD/svg11.dtd">
<svg version="1.1" xmlns="http://www.w3.org/2000/svg" xmlns:xlink="http://www.w3.org/1999/xlink" x="0px" y="0px"
	 width="512px" height="512px" viewBox="0 0 512 512" style="enable-background:new 0 0 512 512;" xml:space="preserve">
<path id="glasses-7" d="M353.87,187.334c-55.558,0-60.519,16.026-97.87,15.851c-37.351,0.176-42.246-15.851-97.87-15.851
	c-36.378,0-75.473,5.691-108.13,12.271v25.104c5.633,4.735,17.15,7.669,17.184,24.342c0.101,65.69,27.259,75.313,79.027,75.614
	c69.521,0,78.91-15.926,90.527-71.205c2.582-12.271,8.801-19.715,19.262-19.715s16.681,7.443,19.262,19.715
	c11.618,55.279,21.006,71.205,90.527,71.205c51.769-0.301,78.927-9.924,79.027-75.614c0.033-16.673,11.551-19.606,17.184-24.342
	v-25.104C429.344,193.025,390.248,187.334,353.87,187.334z M220.057,248.867c-9.623,45.691-11.819,59.086-73.763,58.633
	c-48.751-0.285-61.961-9.791-61.961-58.809c0-26.027,0-44.191,73.796-44.191c33.042,0,53.327,7.569,60.268,17.653
	C222.103,227.518,222.656,236.503,220.057,248.867z M365.705,307.5c-61.943,0.453-64.14-12.941-73.762-58.633
	c-2.6-12.364-2.046-21.35,1.659-26.714c6.94-10.084,27.226-17.653,60.268-17.653c73.796,0,73.796,18.164,73.796,44.191
	C427.666,297.709,414.457,307.215,365.705,307.5z M352.496,219.094c59.026,0,59.026,14.534,59.026,35.355
	c0,3.981-0.201,7.418-0.436,10.779C402.453,235.615,388.506,228.641,352.496,219.094z M100.913,265.229
	c-0.234-3.361-0.436-6.798-0.436-10.779c0-20.821,0-35.355,59.027-35.355C123.495,228.641,109.547,235.615,100.913,265.229z"/>
</svg>
