<?xml version="1.0" encoding="utf-8"?>
<!-- Generator: Adobe Illustrator 16.0.0, SVG Export Plug-In . SVG Version: 6.00 Build 0)  -->
<!DOCTYPE svg PUBLIC "-//W3C//DTD SVG 1.1//EN" "http://www.w3.org/Graphics/SVG/1.1/DTD/svg11.dtd">
<svg version="1.1" id="Layer_1" xmlns="http://www.w3.org/2000/svg" xmlns:xlink="http://www.w3.org/1999/xlink" x="0px" y="0px"
	 width="225.359px" height="226.5px" viewBox="0 0 225.359 226.5" enable-background="new 0 0 225.359 226.5" xml:space="preserve">
<circle fill="#C6C6C5" stroke="#B0AFB0" stroke-miterlimit="10" cx="113.18" cy="112.18" r="112.18"/>
<g>
	<path d="M70.379,107.161H69.84l0.082-3.82h15.422l0.082,3.82h-0.504c-0.18-1.047-0.426-1.803-0.738-2.268s-0.648-0.75-1.008-0.855
		s-0.973-0.158-1.84-0.158h-2.555v11.215c0,1.242,0.029,2.059,0.088,2.449s0.217,0.68,0.475,0.867s0.742,0.281,1.453,0.281h0.773
		v0.539h-7.922v-0.539h0.82c0.68,0,1.15-0.086,1.412-0.258s0.43-0.439,0.504-0.803s0.111-1.209,0.111-2.537v-11.215h-2.355
		c-1.023,0-1.711,0.049-2.062,0.146s-0.682,0.393-0.99,0.885S70.543,106.153,70.379,107.161z"/>
	<path d="M93.113,112.879h-6.691c-0.031,0.461-0.047,0.805-0.047,1.031c0,1.688,0.264,2.955,0.791,3.803s1.314,1.271,2.361,1.271
		c1.422,0,2.43-0.637,3.023-1.91h0.562c-0.25,0.797-0.746,1.42-1.488,1.869s-1.551,0.674-2.426,0.674
		c-0.812,0-1.58-0.205-2.303-0.615s-1.314-0.99-1.775-1.74s-0.691-1.66-0.691-2.73c0-1.516,0.445-2.775,1.336-3.779
		s2.004-1.506,3.34-1.506c1.258,0,2.23,0.383,2.918,1.148S93.074,111.989,93.113,112.879z M91.062,112.411
		c0.023-0.18,0.035-0.34,0.035-0.48c0-0.688-0.201-1.221-0.604-1.6s-0.896-0.568-1.482-0.568c-1.422,0-2.27,0.883-2.543,2.648
		H91.062z"/>
	<path d="M104.598,117.473h0.434c-0.07,1.336-0.727,2.004-1.969,2.004c-0.531,0-0.951-0.141-1.26-0.422s-0.51-0.699-0.604-1.254
		c-0.781,0.555-1.494,0.973-2.139,1.254s-1.221,0.422-1.729,0.422c-0.648,0-1.207-0.188-1.676-0.562s-0.703-0.871-0.703-1.488
		c0-0.805,0.393-1.508,1.178-2.109s1.869-1.188,3.252-1.758l1.816-0.738v-0.469c0-0.664-0.043-1.145-0.129-1.441
		s-0.309-0.562-0.668-0.797s-0.832-0.352-1.418-0.352c-1.172,0-1.824,0.391-1.957,1.172c-0.125,0.797-0.453,1.195-0.984,1.195
		c-0.477,0-0.715-0.227-0.715-0.68c0-0.445,0.316-0.924,0.949-1.436s1.617-0.768,2.953-0.768c0.992,0,1.762,0.156,2.309,0.469
		s0.908,0.668,1.084,1.066s0.264,1.008,0.264,1.828v3.879c0,0.906,0.047,1.488,0.141,1.746s0.297,0.387,0.609,0.387
		C104.152,118.622,104.473,118.239,104.598,117.473z M101.199,113.372l-1.277,0.516c-2.016,0.82-3.023,1.852-3.023,3.094
		c0,0.492,0.129,0.889,0.387,1.189s0.594,0.451,1.008,0.451c0.367,0,0.793-0.121,1.277-0.363s1.027-0.605,1.629-1.09V113.372z"/>
	<path d="M120.453,116.887h0.516c-0.531,1.82-1.859,2.73-3.984,2.73c-1.367,0-2.518-0.465-3.451-1.395s-1.4-2.16-1.4-3.691
		c0-1.57,0.504-2.844,1.512-3.82s2.199-1.465,3.574-1.465c0.828,0,1.59,0.182,2.285,0.545s1.043,0.807,1.043,1.33
		c0,0.195-0.064,0.379-0.193,0.551s-0.314,0.258-0.557,0.258c-0.516,0-0.832-0.301-0.949-0.902c-0.094-0.453-0.238-0.77-0.434-0.949
		c-0.203-0.18-0.598-0.27-1.184-0.27c-1.047,0-1.834,0.363-2.361,1.09s-0.791,1.82-0.791,3.281c0,1.508,0.283,2.688,0.85,3.539
		s1.424,1.277,2.572,1.277C119.047,118.997,120.031,118.293,120.453,116.887z"/>
	<path d="M131.961,109.633v6.293c0,1.047,0.016,1.703,0.047,1.969s0.146,0.465,0.346,0.598s0.557,0.199,1.072,0.199v0.539
		c-1.188,0.016-2.055,0.141-2.602,0.375h-0.141c-0.25-0.43-0.383-1.172-0.398-2.227c-0.477,0.742-1.021,1.301-1.635,1.676
		s-1.291,0.562-2.033,0.562c-0.641,0-1.207-0.146-1.699-0.439s-0.83-0.65-1.014-1.072s-0.275-1.059-0.275-1.91v-3.27
		c0-1.109-0.02-1.787-0.059-2.033s-0.162-0.428-0.369-0.545s-0.588-0.176-1.143-0.176v-0.539h3.258v6.656
		c0,0.656,0.039,1.133,0.117,1.43s0.277,0.557,0.598,0.779s0.691,0.334,1.113,0.334c0.602,0,1.176-0.197,1.723-0.592
		s0.92-0.812,1.119-1.254s0.299-1.072,0.299-1.893v-2.168c0-1.047-0.012-1.684-0.035-1.91s-0.123-0.424-0.299-0.592
		s-0.541-0.252-1.096-0.252h-0.246v-0.539H131.961z"/>
	<path d="M137,109.247h0.316c0.133,0.438,0.199,0.965,0.199,1.582c0.5-0.531,1.037-0.928,1.611-1.189s1.182-0.393,1.822-0.393
		c1.328,0,2.434,0.467,3.316,1.4s1.324,2.166,1.324,3.697c0,1.5-0.443,2.754-1.33,3.762s-2.053,1.512-3.498,1.512
		c-0.594,0-1.162-0.119-1.705-0.357s-1.057-0.592-1.541-1.061v3.645c0,1.109,0.021,1.785,0.064,2.027s0.166,0.424,0.369,0.545
		s0.582,0.182,1.137,0.182v0.539h-5.016v-0.539h0.352c0.555,0,0.916-0.08,1.084-0.24s0.266-0.352,0.293-0.574
		s0.041-0.869,0.041-1.939v-8.719c0-1.023-0.014-1.668-0.041-1.934s-0.139-0.469-0.334-0.609s-0.543-0.211-1.043-0.211h-0.352
		v-0.539C134.844,109.754,135.82,109.559,137,109.247z M137.516,117.426c0.422,0.516,0.869,0.904,1.342,1.166
		s0.971,0.393,1.494,0.393c0.883,0,1.652-0.379,2.309-1.137s0.984-1.965,0.984-3.621c0-1.438-0.316-2.512-0.949-3.223
		s-1.387-1.066-2.262-1.066c-0.539,0-1.051,0.137-1.535,0.41s-0.945,0.688-1.383,1.242V117.426z"/>
</g>
<g>
</g>
<g>
</g>
<g>
</g>
<g>
</g>
<g>
</g>
<g>
</g>
</svg>
